<svg width="20" height="20" viewBox="0 0 20 20" fill="none" xmlns="http://www.w3.org/2000/svg">
<path d="M7.49935 1.66667C5.31602 1.66667 3.54102 3.44167 3.54102 5.62501C3.54102 7.76667 5.21602 9.50001 7.39935 9.57501C7.46602 9.56667 7.53268 9.56667 7.58268 9.57501C7.59935 9.57501 7.60768 9.57501 7.62435 9.57501C7.63268 9.57501 7.63268 9.57501 7.64102 9.57501C9.77435 9.50001 11.4493 7.76667 11.4577 5.62501C11.4577 3.44167 9.68268 1.66667 7.49935 1.66667Z" fill="white"/>
<path d="M11.7328 11.7916C9.40781 10.2416 5.61615 10.2416 3.27448 11.7916C2.21615 12.4999 1.63281 13.4582 1.63281 14.4832C1.63281 15.5082 2.21615 16.4582 3.26615 17.1582C4.43281 17.9416 5.96615 18.3332 7.49948 18.3332C9.03281 18.3332 10.5661 17.9416 11.7328 17.1582C12.7828 16.4499 13.3661 15.4999 13.3661 14.4666C13.3578 13.4416 12.7828 12.4916 11.7328 11.7916Z" fill="white"/>
<path d="M16.6578 6.11675C16.7911 7.73342 15.6411 9.15009 14.0495 9.34175C14.0411 9.34175 14.0411 9.34175 14.0328 9.34175H14.0078C13.9578 9.34175 13.9078 9.34175 13.8661 9.35842C13.0578 9.40009 12.3161 9.14175 11.7578 8.66675C12.6161 7.90009 13.1078 6.75009 13.0078 5.50009C12.9495 4.82509 12.7161 4.20842 12.3661 3.68342C12.6828 3.52509 13.0495 3.42509 13.4245 3.39176C15.0578 3.25009 16.5161 4.46675 16.6578 6.11675Z" fill="white"/>
<path d="M18.3249 13.8247C18.2582 14.633 17.7415 15.333 16.8749 15.808C16.0415 16.2663 14.9915 16.483 13.9499 16.458C14.5499 15.9163 14.8999 15.2413 14.9665 14.5247C15.0499 13.4913 14.5582 12.4997 13.5749 11.708C13.0165 11.2663 12.3665 10.9163 11.6582 10.658C13.4999 10.1247 15.8165 10.483 17.2415 11.633C18.0082 12.2497 18.3999 13.0247 18.3249 13.8247Z" fill="white"/>
</svg>
