<svg width="20" height="20" viewBox="0 0 20 20" fill="none" xmlns="http://www.w3.org/2000/svg">
<path d="M9.9974 1.66663C5.40573 1.66663 1.66406 5.40829 1.66406 9.99996C1.66406 14.5916 5.40573 18.3333 9.9974 18.3333C14.5891 18.3333 18.3307 14.5916 18.3307 9.99996C18.3307 5.40829 14.5891 1.66663 9.9974 1.66663ZM13.6224 12.975C13.5057 13.175 13.2974 13.2833 13.0807 13.2833C12.9724 13.2833 12.8641 13.2583 12.7641 13.1916L10.1807 11.65C9.53906 11.2666 9.06406 10.425 9.06406 9.68329V6.26663C9.06406 5.92496 9.3474 5.64163 9.68906 5.64163C10.0307 5.64163 10.3141 5.92496 10.3141 6.26663V9.68329C10.3141 9.98329 10.5641 10.425 10.8224 10.575L13.4057 12.1166C13.7057 12.2916 13.8057 12.675 13.6224 12.975Z" fill="#FFD601"/>
</svg>
