<svg width="20" height="20" viewBox="0 0 20 20" fill="none" xmlns="http://www.w3.org/2000/svg">
<path d="M12.918 10.958H11.1096C9.6263 10.958 8.41797 9.75801 8.41797 8.26634V6.45801C8.41797 6.11634 8.14297 5.83301 7.79297 5.83301H5.1513C3.2263 5.83301 1.66797 7.08301 1.66797 9.31634V14.8497C1.66797 17.083 3.2263 18.333 5.1513 18.333H10.0596C11.9846 18.333 13.543 17.083 13.543 14.8497V11.583C13.543 11.233 13.2596 10.958 12.918 10.958Z" fill="#848484"/>
<path d="M14.8482 1.66699H13.2065H12.2982H9.93984C8.05651 1.66699 6.53151 2.86699 6.46484 5.00866C6.51484 5.00866 6.55651 5.00033 6.60651 5.00033H8.96484H9.87318H11.5148C13.4398 5.00033 14.9982 6.25033 14.9982 8.48366V10.1253V12.3837V14.0253C14.9982 14.0753 14.9898 14.117 14.9898 14.1587C16.8482 14.1003 18.3315 12.867 18.3315 10.692V9.05033V6.79199V5.15033C18.3315 2.91699 16.7732 1.66699 14.8482 1.66699Z" fill="#848484"/>
<path d="M9.98516 5.95813C9.72682 5.69979 9.28516 5.87479 9.28516 6.23313V8.41646C9.28516 9.33313 10.0602 10.0831 11.0102 10.0831C11.6018 10.0915 12.4268 10.0915 13.1352 10.0915C13.4935 10.0915 13.6768 9.67479 13.4268 9.42479C12.5185 8.51646 10.9018 6.89146 9.98516 5.95813Z" fill="#848484"/>
</svg>
