<svg width="20" height="20" viewBox="0 0 20 20" fill="none" xmlns="http://www.w3.org/2000/svg">
<path d="M4.16602 12.4993H3.33268C2.89065 12.4993 2.46673 12.3238 2.15417 12.0112C1.84161 11.6986 1.66602 11.2747 1.66602 10.8327V3.33268C1.66602 2.89065 1.84161 2.46673 2.15417 2.15417C2.46673 1.84161 2.89065 1.66602 3.33268 1.66602H10.8327C11.2747 1.66602 11.6986 1.84161 12.0112 2.15417C12.3238 2.46673 12.4993 2.89065 12.4993 3.33268V4.16602M9.16602 7.49935H16.666C17.5865 7.49935 18.3327 8.24554 18.3327 9.16602V16.666C18.3327 17.5865 17.5865 18.3327 16.666 18.3327H9.16602C8.24554 18.3327 7.49935 17.5865 7.49935 16.666V9.16602C7.49935 8.24554 8.24554 7.49935 9.16602 7.49935Z" stroke="#1C1C1C" stroke-width="1.67" stroke-linecap="round" stroke-linejoin="round"/>
</svg>
