<svg width="20" height="20" viewBox="0 0 20 20" fill="none" xmlns="http://www.w3.org/2000/svg">
<path d="M12.9141 10.9584H11.1057C9.6224 10.9584 8.41406 9.75837 8.41406 8.26671V6.45837C8.41406 6.11671 8.13906 5.83337 7.78906 5.83337H5.1474C3.2224 5.83337 1.66406 7.08337 1.66406 9.31671V14.85C1.66406 17.0834 3.2224 18.3334 5.1474 18.3334H10.0557C11.9807 18.3334 13.5391 17.0834 13.5391 14.85V11.5834C13.5391 11.2334 13.2557 10.9584 12.9141 10.9584Z" fill="#DCD9D9"/>
<path d="M14.8482 1.66663H13.2065H12.2982H9.93984C8.05651 1.66663 6.53151 2.86663 6.46484 5.00829C6.51484 5.00829 6.55651 4.99996 6.60651 4.99996H8.96484H9.87318H11.5148C13.4398 4.99996 14.9982 6.24996 14.9982 8.48329V10.125V12.3833V14.025C14.9982 14.075 14.9898 14.1166 14.9898 14.1583C16.8482 14.1 18.3315 12.8666 18.3315 10.6916V9.04996V6.79163V5.14996C18.3315 2.91663 16.7732 1.66663 14.8482 1.66663Z" fill="#DCD9D9"/>
<path d="M9.98516 5.95837C9.72682 5.70004 9.28516 5.87504 9.28516 6.23337V8.4167C9.28516 9.33337 10.0602 10.0834 11.0102 10.0834C11.6018 10.0917 12.4268 10.0917 13.1352 10.0917C13.4935 10.0917 13.6768 9.67504 13.4268 9.42504C12.5185 8.5167 10.9018 6.8917 9.98516 5.95837Z" fill="#DCD9D9"/>
</svg>
