<svg width="20" height="20" viewBox="0 0 20 20" fill="none" xmlns="http://www.w3.org/2000/svg">
<path d="M18.3334 7.08366C18.3334 9.80033 16.3334 12.042 13.7334 12.4337V12.3837C13.4751 9.15032 10.8501 6.52533 7.59173 6.26699H7.56673C7.95839 3.66699 10.2001 1.66699 12.9167 1.66699C15.9084 1.66699 18.3334 4.09199 18.3334 7.08366Z" fill="#1C1C1C"/>
<path d="M12.4833 12.4833C12.275 9.84167 10.1583 7.725 7.51667 7.51667C7.37501 7.50833 7.22501 7.5 7.08334 7.5C4.09167 7.5 1.66667 9.925 1.66667 12.9167C1.66667 15.9083 4.09167 18.3333 7.08334 18.3333C10.075 18.3333 12.5 15.9083 12.5 12.9167C12.5 12.775 12.4917 12.625 12.4833 12.4833ZM7.81667 13.65L7.08334 15L6.35 13.65L5.00001 12.9167L6.35 12.1833L7.08334 10.8333L7.81667 12.1833L9.16667 12.9167L7.81667 13.65Z" fill="#1C1C1C"/>
</svg>
