<svg width="22" height="23" viewBox="0 0 22 23" fill="none" xmlns="http://www.w3.org/2000/svg">
<g filter="url(#filter0_d_1_11033)">
<path fill-rule="evenodd" clip-rule="evenodd" d="M6.28352 14.309C5.99952 13.95 5.65452 13.216 5.04052 12.325C4.69252 11.821 3.82952 10.872 3.57252 10.39C3.34952 9.96403 3.37352 9.77303 3.42652 9.42003C3.52052 8.79203 4.16452 8.30303 4.85152 8.36903C5.37052 8.41803 5.81052 8.76103 6.20652 9.08503C6.44552 9.28003 6.73952 9.65903 6.91652 9.87303C7.07952 10.069 7.11952 10.15 7.29352 10.382C7.52352 10.689 7.59552 10.841 7.50752 10.503C7.43652 10.007 7.32052 9.16003 7.15252 8.41103C7.02452 7.84303 6.99352 7.75403 6.87152 7.31803C6.74252 6.85403 6.67652 6.52903 6.55552 6.03703C6.47152 5.68903 6.32052 4.97803 6.27952 4.57803C6.22252 4.03103 6.19252 3.13903 6.54352 2.72903C6.81852 2.40803 7.44952 2.31103 7.84052 2.50903C8.35252 2.76803 8.64352 3.51203 8.77652 3.80903C9.01552 4.34303 9.16352 4.96003 9.29252 5.77003C9.45652 6.80103 9.75852 8.23203 9.76852 8.53303C9.79252 8.16403 9.70052 7.38703 9.76452 7.03303C9.82252 6.71203 10.0925 6.33903 10.4305 6.23803C10.7165 6.15303 11.0515 6.12203 11.3465 6.18303C11.6595 6.24703 11.9895 6.47103 12.1125 6.68203C12.4745 7.30603 12.4815 8.58103 12.4965 8.51303C12.5825 8.13703 12.5675 7.28403 12.7805 6.92903C12.9205 6.69503 13.2775 6.48403 13.4675 6.45003C13.7615 6.39803 14.1225 6.38203 14.4315 6.44203C14.6805 6.49103 15.0175 6.78703 15.1085 6.92903C15.3265 7.27303 15.4505 8.24603 15.4875 8.58703C15.5025 8.72803 15.5615 8.19503 15.7805 7.85103C16.1865 7.21203 17.6235 7.08803 17.6785 8.49003C17.7035 9.14403 17.6985 9.11403 17.6985 9.55403C17.6985 10.071 17.6865 10.382 17.6585 10.756C17.6275 11.156 17.5415 12.06 17.4165 12.498C17.3305 12.799 17.0455 13.476 16.7645 13.882C16.7645 13.882 15.6905 15.132 15.5735 15.695C15.4555 16.257 15.4945 16.261 15.4715 16.66C15.4485 17.058 15.5925 17.582 15.5925 17.582C15.5925 17.582 14.7905 17.686 14.3585 17.617C13.9675 17.554 13.4835 16.776 13.3585 16.538C13.1865 16.21 12.8195 16.273 12.6765 16.515C12.4515 16.898 11.9675 17.585 11.6255 17.628C10.9575 17.712 9.57152 17.659 8.48652 17.648C8.48652 17.648 8.67152 16.637 8.25952 16.29C7.95452 16.031 7.42952 15.506 7.11552 15.23L6.28352 14.309Z" fill="white"/>
<path fill-rule="evenodd" clip-rule="evenodd" d="M6.28352 14.309C5.99952 13.95 5.65452 13.216 5.04052 12.325C4.69252 11.821 3.82952 10.872 3.57252 10.39C3.34952 9.96403 3.37352 9.77303 3.42652 9.42003C3.52052 8.79203 4.16452 8.30303 4.85152 8.36903C5.37052 8.41803 5.81052 8.76103 6.20652 9.08503C6.44552 9.28003 6.73952 9.65903 6.91652 9.87303C7.07952 10.069 7.11952 10.15 7.29352 10.382C7.52352 10.689 7.59552 10.841 7.50752 10.503C7.43652 10.007 7.32052 9.16003 7.15252 8.41103C7.02452 7.84303 6.99352 7.75403 6.87152 7.31803C6.74252 6.85403 6.67652 6.52903 6.55552 6.03703C6.47152 5.68903 6.32052 4.97803 6.27952 4.57803C6.22252 4.03103 6.19252 3.13903 6.54352 2.72903C6.81852 2.40803 7.44952 2.31103 7.84052 2.50903C8.35252 2.76803 8.64352 3.51203 8.77652 3.80903C9.01552 4.34303 9.16352 4.96003 9.29252 5.77003C9.45652 6.80103 9.75852 8.23203 9.76852 8.53303C9.79252 8.16403 9.70052 7.38703 9.76452 7.03303C9.82252 6.71203 10.0925 6.33903 10.4305 6.23803C10.7165 6.15303 11.0515 6.12203 11.3465 6.18303C11.6595 6.24703 11.9895 6.47103 12.1125 6.68203C12.4745 7.30603 12.4815 8.58103 12.4965 8.51303C12.5825 8.13703 12.5675 7.28403 12.7805 6.92903C12.9205 6.69503 13.2775 6.48403 13.4675 6.45003C13.7615 6.39803 14.1225 6.38203 14.4315 6.44203C14.6805 6.49103 15.0175 6.78703 15.1085 6.92903C15.3265 7.27303 15.4505 8.24603 15.4875 8.58703C15.5025 8.72803 15.5615 8.19503 15.7805 7.85103C16.1865 7.21203 17.6235 7.08803 17.6785 8.49003C17.7035 9.14403 17.6985 9.11403 17.6985 9.55403C17.6985 10.071 17.6865 10.382 17.6585 10.756C17.6275 11.156 17.5415 12.06 17.4165 12.498C17.3305 12.799 17.0455 13.476 16.7645 13.882C16.7645 13.882 15.6905 15.132 15.5735 15.695C15.4555 16.257 15.4945 16.261 15.4715 16.66C15.4485 17.058 15.5925 17.582 15.5925 17.582C15.5925 17.582 14.7905 17.686 14.3585 17.617C13.9675 17.554 13.4835 16.776 13.3585 16.538C13.1865 16.21 12.8195 16.273 12.6765 16.515C12.4515 16.898 11.9675 17.585 11.6255 17.628C10.9575 17.712 9.57152 17.659 8.48652 17.648C8.48652 17.648 8.67152 16.637 8.25952 16.29C7.95452 16.031 7.42952 15.506 7.11552 15.23L6.28352 14.309Z" stroke="#101828" stroke-width="0.75" stroke-linecap="round" stroke-linejoin="round"/>
<path d="M14.5234 14.6636V11.2046" stroke="#101828" stroke-width="0.75" stroke-linecap="round"/>
<path d="M12.5082 14.6753L12.4922 11.2023" stroke="#101828" stroke-width="0.75" stroke-linecap="round"/>
<path d="M10.5078 11.2339L10.5288 14.6599" stroke="#101828" stroke-width="0.75" stroke-linecap="round"/>
</g>
<defs>
<filter id="filter0_d_1_11033" x="0" y="0" width="22" height="22.0497" filterUnits="userSpaceOnUse" color-interpolation-filters="sRGB">
<feFlood flood-opacity="0" result="BackgroundImageFix"/>
<feColorMatrix in="SourceAlpha" type="matrix" values="0 0 0 0 0 0 0 0 0 0 0 0 0 0 0 0 0 0 127 0" result="hardAlpha"/>
<feOffset dy="1"/>
<feGaussianBlur stdDeviation="1.5"/>
<feColorMatrix type="matrix" values="0 0 0 0 0 0 0 0 0 0 0 0 0 0 0 0 0 0 0.35 0"/>
<feBlend mode="normal" in2="BackgroundImageFix" result="effect1_dropShadow_1_11033"/>
<feBlend mode="normal" in="SourceGraphic" in2="effect1_dropShadow_1_11033" result="shape"/>
</filter>
</defs>
</svg>
