<svg width="18" height="18" viewBox="0 0 18 18" fill="none" xmlns="http://www.w3.org/2000/svg">
<path d="M12.491 0.666992H5.50768C2.47435 0.666992 0.666016 2.47533 0.666016 5.50866V12.4837C0.666016 15.5253 2.47435 17.3337 5.50768 17.3337H12.4827C15.516 17.3337 17.3243 15.5253 17.3243 12.492V5.50866C17.3327 2.47533 15.5243 0.666992 12.491 0.666992ZM5.35768 14.1253C5.35768 14.467 5.07435 14.7503 4.73268 14.7503C4.39102 14.7503 4.10768 14.467 4.10768 14.1253V12.4003C4.10768 12.0587 4.39102 11.7753 4.73268 11.7753C5.07435 11.7753 5.35768 12.0587 5.35768 12.4003V14.1253ZM9.62435 14.1253C9.62435 14.467 9.34102 14.7503 8.99935 14.7503C8.65768 14.7503 8.37435 14.467 8.37435 14.1253V10.667C8.37435 10.3253 8.65768 10.042 8.99935 10.042C9.34102 10.042 9.62435 10.3253 9.62435 10.667V14.1253ZM13.891 14.1253C13.891 14.467 13.6077 14.7503 13.266 14.7503C12.9243 14.7503 12.641 14.467 12.641 14.1253V8.94199C12.641 8.60033 12.9243 8.31699 13.266 8.31699C13.6077 8.31699 13.891 8.60033 13.891 8.94199V14.1253ZM13.891 6.30866C13.891 6.65033 13.6077 6.93366 13.266 6.93366C12.9243 6.93366 12.641 6.65033 12.641 6.30866V5.50033C10.516 7.68366 7.85768 9.22533 4.88268 9.96699C4.83268 9.98366 4.78268 9.98366 4.73268 9.98366C4.44935 9.98366 4.19935 9.79199 4.12435 9.50866C4.04102 9.17533 4.24102 8.83366 4.58268 8.75033C7.39102 8.05033 9.89102 6.57533 11.8743 4.49199H10.8327C10.491 4.49199 10.2077 4.20866 10.2077 3.86699C10.2077 3.52533 10.491 3.24199 10.8327 3.24199H13.2743C13.3077 3.24199 13.3327 3.25866 13.366 3.25866C13.4077 3.26699 13.4493 3.26699 13.491 3.28366C13.5327 3.30033 13.566 3.32533 13.6077 3.35033C13.6327 3.36699 13.6577 3.37533 13.6827 3.39199C13.691 3.40033 13.691 3.40866 13.6993 3.40866C13.7327 3.44199 13.7577 3.47533 13.7827 3.50866C13.8077 3.54199 13.8327 3.56699 13.841 3.60033C13.8577 3.63366 13.8577 3.66699 13.866 3.70866C13.8743 3.75033 13.891 3.79199 13.891 3.84199C13.891 3.85033 13.8993 3.85866 13.8993 3.86699V6.30866H13.891Z" fill="white"/>
</svg>
