<svg width="20" height="20" viewBox="0 0 20 20" fill="none" xmlns="http://www.w3.org/2000/svg">
<path d="M13.4917 1.66699H6.50832C3.47499 1.66699 1.66666 3.47533 1.66666 6.50866V13.4837C1.66666 16.5253 3.47499 18.3337 6.50832 18.3337H13.4833C16.5167 18.3337 18.325 16.5253 18.325 13.492V6.50866C18.3333 3.47533 16.525 1.66699 13.4917 1.66699ZM6.35832 15.1253C6.35832 15.467 6.07499 15.7503 5.73332 15.7503C5.39166 15.7503 5.10832 15.467 5.10832 15.1253V13.4003C5.10832 13.0587 5.39166 12.7753 5.73332 12.7753C6.07499 12.7753 6.35832 13.0587 6.35832 13.4003V15.1253ZM10.625 15.1253C10.625 15.467 10.3417 15.7503 9.99999 15.7503C9.65832 15.7503 9.37499 15.467 9.37499 15.1253V11.667C9.37499 11.3253 9.65832 11.042 9.99999 11.042C10.3417 11.042 10.625 11.3253 10.625 11.667V15.1253ZM14.8917 15.1253C14.8917 15.467 14.6083 15.7503 14.2667 15.7503C13.925 15.7503 13.6417 15.467 13.6417 15.1253V9.94199C13.6417 9.60033 13.925 9.31699 14.2667 9.31699C14.6083 9.31699 14.8917 9.60033 14.8917 9.94199V15.1253ZM14.8917 7.30866C14.8917 7.65033 14.6083 7.93366 14.2667 7.93366C13.925 7.93366 13.6417 7.65033 13.6417 7.30866V6.50033C11.5167 8.68366 8.85832 10.2253 5.88332 10.967C5.83332 10.9837 5.78332 10.9837 5.73332 10.9837C5.44999 10.9837 5.19999 10.792 5.12499 10.5087C5.04166 10.1753 5.24166 9.83366 5.58332 9.75033C8.39166 9.05033 10.8917 7.57533 12.875 5.49199H11.8333C11.4917 5.49199 11.2083 5.20866 11.2083 4.86699C11.2083 4.52533 11.4917 4.24199 11.8333 4.24199H14.275C14.3083 4.24199 14.3333 4.25866 14.3667 4.25866C14.4083 4.26699 14.45 4.26699 14.4917 4.28366C14.5333 4.30033 14.5667 4.32533 14.6083 4.35033C14.6333 4.36699 14.6583 4.37533 14.6833 4.39199C14.6917 4.40033 14.6917 4.40866 14.7 4.40866C14.7333 4.44199 14.7583 4.47533 14.7833 4.50866C14.8083 4.54199 14.8333 4.56699 14.8417 4.60033C14.8583 4.63366 14.8583 4.66699 14.8667 4.70866C14.875 4.75033 14.8917 4.79199 14.8917 4.84199C14.8917 4.85033 14.9 4.85866 14.9 4.86699V7.30866H14.8917Z" fill="#1C1C1C"/>
</svg>
