<svg width="20" height="20" viewBox="0 0 20 20" fill="none" xmlns="http://www.w3.org/2000/svg">
<path d="M7.50002 1.66699C5.31669 1.66699 3.54169 3.44199 3.54169 5.62533C3.54169 7.76699 5.21669 9.50033 7.40002 9.57533C7.46669 9.56699 7.53335 9.56699 7.58335 9.57533C7.60002 9.57533 7.60835 9.57533 7.62502 9.57533C7.63335 9.57533 7.63335 9.57533 7.64169 9.57533C9.77502 9.50033 11.45 7.76699 11.4584 5.62533C11.4584 3.44199 9.68335 1.66699 7.50002 1.66699Z" fill="#1C1C1C"/>
<path d="M11.7334 11.7914C9.40838 10.2414 5.61671 10.2414 3.27504 11.7914C2.21671 12.4997 1.63338 13.4581 1.63338 14.4831C1.63338 15.5081 2.21671 16.4581 3.26671 17.1581C4.43338 17.9414 5.96671 18.3331 7.50004 18.3331C9.03338 18.3331 10.5667 17.9414 11.7334 17.1581C12.7834 16.4497 13.3667 15.4997 13.3667 14.4664C13.3584 13.4414 12.7834 12.4914 11.7334 11.7914Z" fill="#1C1C1C"/>
<path d="M16.6583 6.11708C16.7917 7.73374 15.6417 9.15041 14.05 9.34208C14.0417 9.34208 14.0417 9.34208 14.0333 9.34208H14.0083C13.9583 9.34208 13.9083 9.34207 13.8667 9.35874C13.0583 9.40041 12.3167 9.14207 11.7583 8.66707C12.6167 7.90041 13.1083 6.75041 13.0083 5.50041C12.95 4.82541 12.7167 4.20874 12.3667 3.68374C12.6833 3.52541 13.05 3.42541 13.425 3.39208C15.0583 3.25041 16.5167 4.46708 16.6583 6.11708Z" fill="#1C1C1C"/>
<path d="M18.325 13.8247C18.2583 14.633 17.7417 15.333 16.875 15.808C16.0417 16.2663 14.9917 16.483 13.95 16.458C14.55 15.9163 14.9 15.2413 14.9667 14.5247C15.05 13.4913 14.5583 12.4997 13.575 11.708C13.0167 11.2663 12.3667 10.9163 11.6583 10.658C13.5 10.1247 15.8167 10.483 17.2417 11.633C18.0083 12.2497 18.4 13.0247 18.325 13.8247Z" fill="#1C1C1C"/>
</svg>
