<svg width="20" height="20" viewBox="0 0 20 20" fill="none" xmlns="http://www.w3.org/2000/svg">
<path d="M7.5013 1.66699C5.31797 1.66699 3.54297 3.44199 3.54297 5.62533C3.54297 7.76699 5.21797 9.50033 7.4013 9.57533C7.46797 9.56699 7.53464 9.56699 7.58464 9.57533C7.6013 9.57533 7.60963 9.57533 7.6263 9.57533C7.63463 9.57533 7.63464 9.57533 7.64297 9.57533C9.7763 9.50033 11.4513 7.76699 11.4596 5.62533C11.4596 3.44199 9.68464 1.66699 7.5013 1.66699Z" fill="white"/>
<path d="M11.7328 11.7914C9.40781 10.2414 5.61615 10.2414 3.27448 11.7914C2.21615 12.4997 1.63281 13.4581 1.63281 14.4831C1.63281 15.5081 2.21615 16.4581 3.26615 17.1581C4.43281 17.9414 5.96615 18.3331 7.49948 18.3331C9.03281 18.3331 10.5661 17.9414 11.7328 17.1581C12.7828 16.4497 13.3661 15.4997 13.3661 14.4664C13.3578 13.4414 12.7828 12.4914 11.7328 11.7914Z" fill="white"/>
<path d="M16.6578 6.11708C16.7911 7.73374 15.6411 9.15041 14.0495 9.34208C14.0411 9.34208 14.0411 9.34208 14.0328 9.34208H14.0078C13.9578 9.34208 13.9078 9.34207 13.8661 9.35874C13.0578 9.40041 12.3161 9.14207 11.7578 8.66707C12.6161 7.90041 13.1078 6.75041 13.0078 5.50041C12.9495 4.82541 12.7161 4.20874 12.3661 3.68374C12.6828 3.52541 13.0495 3.42541 13.4245 3.39208C15.0578 3.25041 16.5161 4.46708 16.6578 6.11708Z" fill="white"/>
<path d="M18.3268 13.8247C18.2602 14.633 17.7435 15.333 16.8768 15.808C16.0435 16.2663 14.9935 16.483 13.9518 16.458C14.5518 15.9163 14.9018 15.2413 14.9685 14.5247C15.0518 13.4913 14.5602 12.4997 13.5768 11.708C13.0185 11.2663 12.3685 10.9163 11.6602 10.658C13.5018 10.1247 15.8185 10.483 17.2435 11.633C18.0102 12.2497 18.4018 13.0247 18.3268 13.8247Z" fill="white"/>
</svg>
