<svg width="16" height="16" viewBox="0 0 16 16" fill="none" xmlns="http://www.w3.org/2000/svg">
<path d="M7.9987 1.33301C4.32536 1.33301 1.33203 4.32634 1.33203 7.99967C1.33203 11.673 4.32536 14.6663 7.9987 14.6663C11.672 14.6663 14.6654 11.673 14.6654 7.99967C14.6654 4.32634 11.672 1.33301 7.9987 1.33301ZM11.1854 6.46634L7.40536 10.2463C7.31203 10.3397 7.18536 10.393 7.05203 10.393C6.9187 10.393 6.79203 10.3397 6.6987 10.2463L4.81203 8.35967C4.6187 8.16634 4.6187 7.84634 4.81203 7.65301C5.00536 7.45967 5.32536 7.45967 5.5187 7.65301L7.05203 9.18634L10.4787 5.75967C10.672 5.56634 10.992 5.56634 11.1854 5.75967C11.3787 5.95301 11.3787 6.26634 11.1854 6.46634Z" fill="#8DCD3C"/>
</svg>
