<svg width="18" height="18" viewBox="0 0 18 18" fill="none" xmlns="http://www.w3.org/2000/svg">
<path d="M8.99935 0.666748C4.40768 0.666748 0.666016 4.40841 0.666016 9.00008C0.666016 13.5917 4.40768 17.3334 8.99935 17.3334C13.591 17.3334 17.3327 13.5917 17.3327 9.00008C17.3327 4.40841 13.591 0.666748 8.99935 0.666748ZM12.6243 11.9751C12.5077 12.1751 12.2993 12.2834 12.0827 12.2834C11.9743 12.2834 11.866 12.2584 11.766 12.1917L9.18268 10.6501C8.54102 10.2667 8.06602 9.42508 8.06602 8.68341V5.26675C8.06602 4.92508 8.34935 4.64175 8.69102 4.64175C9.03268 4.64175 9.31602 4.92508 9.31602 5.26675V8.68341C9.31602 8.98341 9.56602 9.42508 9.82435 9.57508L12.4077 11.1167C12.7077 11.2917 12.8077 11.6751 12.6243 11.9751Z" fill="#FFD601"/>
</svg>
