<svg width="20" height="20" viewBox="0 0 20 20" fill="none" xmlns="http://www.w3.org/2000/svg">
<path d="M16.75 7.68287C15.2417 7.68287 14.625 6.61621 15.375 5.30787C15.8084 4.54954 15.55 3.58287 14.7917 3.14954L13.35 2.32454C12.6917 1.93287 11.8417 2.16621 11.45 2.82454L11.3584 2.98287C10.6084 4.29121 9.37502 4.29121 8.61669 2.98287L8.52502 2.82454C8.15002 2.16621 7.30002 1.93287 6.64169 2.32454L5.20002 3.14954C4.44169 3.58287 4.18335 4.55787 4.61669 5.31621C5.37502 6.61621 4.75835 7.68287 3.25002 7.68287C2.38335 7.68287 1.66669 8.39121 1.66669 9.26621V10.7329C1.66669 11.5995 2.37502 12.3162 3.25002 12.3162C4.75835 12.3162 5.37502 13.3829 4.61669 14.6912C4.18335 15.4495 4.44169 16.4162 5.20002 16.8495L6.64169 17.6745C7.30002 18.0662 8.15002 17.8329 8.54169 17.1745L8.63335 17.0162C9.38335 15.7079 10.6167 15.7079 11.375 17.0162L11.4667 17.1745C11.8584 17.8329 12.7084 18.0662 13.3667 17.6745L14.8084 16.8495C15.5667 16.4162 15.825 15.4412 15.3917 14.6912C14.6334 13.3829 15.25 12.3162 16.7584 12.3162C17.625 12.3162 18.3417 11.6079 18.3417 10.7329V9.26621C18.3334 8.39954 17.625 7.68287 16.75 7.68287ZM10 12.7079C8.50835 12.7079 7.29169 11.4912 7.29169 9.99954C7.29169 8.50787 8.50835 7.29121 10 7.29121C11.4917 7.29121 12.7084 8.50787 12.7084 9.99954C12.7084 11.4912 11.4917 12.7079 10 12.7079Z" fill="#1C1C1C"/>
</svg>
