<svg width="18" height="16" viewBox="0 0 18 16" fill="none" xmlns="http://www.w3.org/2000/svg">
<path d="M15.7513 5.68287C14.243 5.68287 13.6263 4.61621 14.3763 3.30787C14.8096 2.54954 14.5513 1.58287 13.793 1.14954L12.3513 0.32454C11.693 -0.0671265 10.843 0.166207 10.4513 0.82454L10.3596 0.982873C9.60964 2.29121 8.3763 2.29121 7.61797 0.982873L7.5263 0.82454C7.1513 0.166207 6.3013 -0.0671265 5.64297 0.32454L4.2013 1.14954C3.44297 1.58287 3.18464 2.55787 3.61797 3.31621C4.3763 4.61621 3.75964 5.68287 2.2513 5.68287C1.38464 5.68287 0.667969 6.39121 0.667969 7.26621V8.73287C0.667969 9.59954 1.3763 10.3162 2.2513 10.3162C3.75964 10.3162 4.3763 11.3829 3.61797 12.6912C3.18464 13.4495 3.44297 14.4162 4.2013 14.8495L5.64297 15.6745C6.3013 16.0662 7.1513 15.8329 7.54297 15.1745L7.63463 15.0162C8.38463 13.7079 9.61797 13.7079 10.3763 15.0162L10.468 15.1745C10.8596 15.8329 11.7096 16.0662 12.368 15.6745L13.8096 14.8495C14.568 14.4162 14.8263 13.4412 14.393 12.6912C13.6346 11.3829 14.2513 10.3162 15.7596 10.3162C16.6263 10.3162 17.343 9.60787 17.343 8.73287V7.26621C17.3346 6.39954 16.6263 5.68287 15.7513 5.68287ZM9.0013 10.7079C7.50964 10.7079 6.29297 9.49121 6.29297 7.99954C6.29297 6.50787 7.50964 5.29121 9.0013 5.29121C10.493 5.29121 11.7096 6.50787 11.7096 7.99954C11.7096 9.49121 10.493 10.7079 9.0013 10.7079Z" fill="white"/>
</svg>
