<svg width="18" height="18" viewBox="0 0 18 18" fill="none" xmlns="http://www.w3.org/2000/svg">
<path d="M8.99935 0.666992C4.40768 0.666992 0.666016 4.40866 0.666016 9.00033C0.666016 13.592 4.40768 17.3337 8.99935 17.3337C13.591 17.3337 17.3327 13.592 17.3327 9.00033C17.3327 4.40866 13.591 0.666992 8.99935 0.666992ZM12.9827 7.08366L8.25768 11.8087C8.14102 11.9253 7.98268 11.992 7.81602 11.992C7.64935 11.992 7.49102 11.9253 7.37435 11.8087L5.01602 9.45033C4.77435 9.20866 4.77435 8.80866 5.01602 8.56699C5.25768 8.32533 5.65768 8.32533 5.89935 8.56699L7.81602 10.4837L12.0993 6.20033C12.341 5.95866 12.741 5.95866 12.9827 6.20033C13.2243 6.44199 13.2243 6.83366 12.9827 7.08366Z" fill="#21BC96"/>
</svg>
