<svg width="20" height="20" viewBox="0 0 20 20" fill="none" xmlns="http://www.w3.org/2000/svg">
<path d="M13.4917 1.66699H6.50833C3.475 1.66699 1.66667 3.47533 1.66667 6.50866V13.4837C1.66667 16.5253 3.475 18.3337 6.50833 18.3337H13.4833C16.5167 18.3337 18.325 16.5253 18.325 13.492V6.50866C18.3333 3.47533 16.525 1.66699 13.4917 1.66699ZM14.875 11.7503C14.8417 11.8253 14.8 11.892 14.7417 11.9503L12.2083 14.4837C12.0833 14.6087 11.925 14.667 11.7667 14.667C11.6083 14.667 11.45 14.6087 11.325 14.4837C11.0833 14.242 11.0833 13.842 11.325 13.6003L12.7917 12.1337H5.70833C5.36667 12.1337 5.08333 11.8503 5.08333 11.5087C5.08333 11.167 5.36667 10.8837 5.70833 10.8837H14.3C14.3833 10.8837 14.4583 10.9003 14.5417 10.9337C14.6917 11.0003 14.8167 11.117 14.8833 11.2753C14.9333 11.4253 14.9333 11.6003 14.875 11.7503ZM14.2917 9.10866H5.70833C5.625 9.10866 5.55 9.09199 5.46667 9.05866C5.31667 8.99199 5.19167 8.87533 5.125 8.71699C5.05833 8.56699 5.05833 8.39199 5.125 8.24199C5.15833 8.16699 5.2 8.10033 5.25833 8.04199L7.79167 5.50866C8.03333 5.26699 8.43333 5.26699 8.675 5.50866C8.91667 5.75033 8.91667 6.15033 8.675 6.39199L7.21667 7.85866H14.3C14.6417 7.85866 14.925 8.14199 14.925 8.48366C14.925 8.82533 14.6417 9.10866 14.2917 9.10866Z" fill="#1C1C1C"/>
</svg>
