<svg width="18" height="18" viewBox="0 0 18 18" fill="none" xmlns="http://www.w3.org/2000/svg">
<path d="M12.491 0.666992H5.50768C2.47435 0.666992 0.666016 2.47533 0.666016 5.50866V12.4837C0.666016 15.5253 2.47435 17.3337 5.50768 17.3337H12.4827C15.516 17.3337 17.3243 15.5253 17.3243 12.492V5.50866C17.3327 2.47533 15.5243 0.666992 12.491 0.666992ZM13.8743 10.7503C13.841 10.8253 13.7993 10.892 13.741 10.9503L11.2077 13.4837C11.0827 13.6087 10.9243 13.667 10.766 13.667C10.6077 13.667 10.4493 13.6087 10.3243 13.4837C10.0827 13.242 10.0827 12.842 10.3243 12.6003L11.791 11.1337H4.70768C4.36602 11.1337 4.08268 10.8503 4.08268 10.5087C4.08268 10.167 4.36602 9.88366 4.70768 9.88366H13.2993C13.3827 9.88366 13.4577 9.90032 13.541 9.93366C13.691 10.0003 13.816 10.117 13.8827 10.2753C13.9327 10.4253 13.9327 10.6003 13.8743 10.7503ZM13.291 8.10866H4.70768C4.62435 8.10866 4.54935 8.09199 4.46602 8.05866C4.31602 7.99199 4.19102 7.87533 4.12435 7.71699C4.05768 7.56699 4.05768 7.39199 4.12435 7.24199C4.15768 7.16699 4.19935 7.10033 4.25768 7.04199L6.79102 4.50866C7.03268 4.26699 7.43268 4.26699 7.67435 4.50866C7.91602 4.75033 7.91602 5.15033 7.67435 5.39199L6.21602 6.85866H13.2993C13.641 6.85866 13.9243 7.14199 13.9243 7.48366C13.9243 7.82533 13.641 8.10866 13.291 8.10866Z" fill="white"/>
</svg>
