<svg width="57" height="35" viewBox="0 0 57 35" fill="none" xmlns="http://www.w3.org/2000/svg">
<path d="M55.7444 24.2673L43.6537 3.27518C41.015 -1.09654 34.5163 -1.13592 31.9563 3.47213L19.2744 25.2913C16.9114 29.3086 19.8258 34.3105 24.5913 34.3105H50.0732C54.8388 34.3499 58.4229 29.1511 55.7444 24.2673Z" fill="#003087"/>
<path d="M38.2995 25.9215L37.5512 24.6218C36.8423 23.4009 35.3063 20.8015 35.3063 20.8015L25.0663 2.9995C22.4275 -0.938994 16.126 -1.29346 13.4872 3.70843L1.55364 24.3461C-0.92759 28.6784 2.02627 34.3105 7.38259 34.3498H32.7069H43.4982H49.9181C43.38 34.3893 41.2928 30.9627 38.2995 25.9215Z" fill="#1877F2"/>
</svg>
