<svg width="24" height="24" viewBox="0 0 24 24" fill="none" xmlns="http://www.w3.org/2000/svg">
<path d="M19.3297 5.68L13.0597 2.3C12.3997 1.94 11.5997 1.94 10.9397 2.3L4.66969 5.68C4.20969 5.93 3.92969 6.41 3.92969 6.96C3.92969 7.5 4.20969 7.99 4.66969 8.24L10.9397 11.62C11.2697 11.8 11.6397 11.89 11.9997 11.89C12.3597 11.89 12.7297 11.8 13.0597 11.62L19.3297 8.24C19.7897 7.99 20.0697 7.51 20.0697 6.96C20.0697 6.41 19.7897 5.93 19.3297 5.68Z" fill="white"/>
<path d="M9.91 12.79L4.07 9.87C3.62 9.65 3.1 9.67 2.68 9.93C2.25 10.2 2 10.65 2 11.15V16.66C2 17.61 2.53 18.47 3.38 18.9L9.21 21.82C9.41 21.92 9.63 21.97 9.85 21.97C10.11 21.97 10.37 21.9 10.6 21.76C11.03 21.5 11.28 21.04 11.28 20.54V15.03C11.29 14.07 10.76 13.21 9.91 12.79Z" fill="white"/>
<path d="M21.3207 9.93C20.8907 9.67 20.3707 9.64 19.9307 9.87L14.1007 12.79C13.2507 13.22 12.7207 14.07 12.7207 15.03V20.54C12.7207 21.04 12.9707 21.5 13.4007 21.76C13.6307 21.9 13.8907 21.97 14.1507 21.97C14.3707 21.97 14.5907 21.92 14.7907 21.82L20.6207 18.9C21.4707 18.47 22.0007 17.62 22.0007 16.66V11.15C22.0007 10.65 21.7507 10.2 21.3207 9.93Z" fill="white"/>
</svg>
