<svg width="120" height="120" viewBox="0 0 120 120" fill="none" xmlns="http://www.w3.org/2000/svg">
<g clip-path="url(#clip0_6066_57452)">
<rect width="120" height="120" rx="60" fill="white"/>
<path d="M39 81L80 40M80 40V81M80 40H39" stroke="#415FFF" stroke-width="4" stroke-linecap="round"/>
<path d="M106.508 63.877C106.557 63.3275 106.699 62.8199 106.934 62.3542C107.173 61.8927 107.497 61.4962 107.907 61.1647C108.316 60.8371 108.802 60.5955 109.366 60.4399C109.933 60.2846 110.571 60.2384 111.277 60.3013C112.204 60.3837 112.979 60.6267 113.604 61.0304C114.233 61.4345 114.695 61.9524 114.991 62.584C115.291 63.216 115.407 63.9088 115.34 64.6625C115.247 65.7066 114.93 66.5113 114.39 67.0764C113.852 67.6458 113.136 67.9995 112.242 68.1376L112.141 66.6687C112.658 66.5525 113.082 66.3251 113.412 65.9866C113.747 65.6484 113.94 65.1967 113.99 64.6314C114.048 64.063 113.967 63.579 113.745 63.1794C113.523 62.7799 113.19 62.4634 112.744 62.2299C112.297 62.0002 111.764 61.8579 111.144 61.8027C110.523 61.7476 109.975 61.7938 109.499 61.9413C109.027 62.0892 108.647 62.3403 108.358 62.6944C108.069 63.0525 107.895 63.5158 107.837 64.0842C107.795 64.5117 107.838 64.8934 107.967 65.2292C108.099 65.5654 108.317 65.8499 108.621 66.0826C108.928 66.3157 109.322 66.4893 109.803 66.6032L109.936 65.1077L111.049 65.2066L110.782 68.2095C110.718 68.2117 110.625 68.2094 110.503 68.2025C110.381 68.1956 110.308 68.1911 110.285 68.1891C109.484 68.1178 108.786 67.8955 108.19 67.522C107.598 67.1529 107.151 66.6582 106.85 66.0379C106.549 65.4177 106.435 64.6974 106.508 63.877Z" fill="#415FFF"/>
<path d="M106.079 69.0297L114.303 71.2249L112.885 76.5364L111.594 76.1918L112.645 72.2568L110.617 71.7156L109.75 74.9653L108.459 74.6208L109.327 71.3711L107.002 70.7506L105.952 74.6857L104.661 74.3411L106.079 69.0297Z" fill="#415FFF"/>
<path d="M103.111 78.3442L109.667 81.2625L110.787 78.7459L112.007 79.2892L109.188 85.6238L107.967 85.0806L109.087 82.564L102.531 79.6457L103.111 78.3442Z" fill="#415FFF"/>
<path d="M96.745 88.7439C97.124 88.2499 97.5519 87.8703 98.0285 87.6052C98.5027 87.3431 98.9976 87.2063 99.5132 87.1946C100.03 87.1884 100.535 87.3201 101.028 87.5895L100.307 88.8987C99.8299 88.6917 99.3632 88.659 98.9069 88.8006C98.4481 88.9454 98.0628 89.221 97.751 89.6274C97.5663 89.8682 97.4299 90.1236 97.3418 90.3938C97.2537 90.664 97.2312 90.9199 97.2743 91.1616C97.3149 91.4064 97.44 91.6091 97.6495 91.7699C97.7433 91.8418 97.8413 91.8922 97.9434 91.9209C98.0487 91.952 98.1566 91.9602 98.2671 91.9457C98.3752 91.9343 98.4915 91.8993 98.6159 91.8407C98.741 91.7877 98.8703 91.7131 99.0037 91.6168L100.858 90.2679C101.017 90.1515 101.2 90.0332 101.406 89.9133C101.613 89.7989 101.84 89.7128 102.089 89.6548C102.337 89.6023 102.6 89.6028 102.877 89.6563C103.155 89.7153 103.442 89.8588 103.739 90.0866C104.174 90.4201 104.454 90.809 104.58 91.2533C104.707 91.7032 104.701 92.1705 104.562 92.6554C104.421 93.1433 104.174 93.6143 103.821 94.0684C103.463 94.5287 103.066 94.8803 102.632 95.123C102.2 95.3681 101.744 95.4999 101.263 95.5183C100.782 95.5367 100.295 95.4364 99.8026 95.2174L100.524 93.8408C100.8 93.9731 101.076 94.0309 101.352 94.0142C101.628 94.003 101.89 93.9278 102.136 93.7887C102.379 93.6526 102.593 93.4713 102.776 93.2447C102.952 93.022 103.079 92.7861 103.155 92.5371C103.233 92.2936 103.252 92.0621 103.211 91.8425C103.169 91.6261 103.06 91.4507 102.885 91.3164C102.719 91.1892 102.545 91.1349 102.362 91.1534C102.182 91.1743 102.004 91.2342 101.829 91.3332C101.654 91.4377 101.488 91.5509 101.33 91.673L100.064 92.6239C99.893 92.756 99.6909 92.8965 99.4575 93.0452C99.2241 93.194 98.9671 93.3122 98.6863 93.3998C98.4055 93.4874 98.1089 93.5081 97.7965 93.4622C97.4817 93.4193 97.1555 93.2684 96.8178 93.0093C96.4676 92.7406 96.216 92.4309 96.063 92.08C95.9107 91.7347 95.8418 91.3713 95.8562 90.99C95.8706 90.6087 95.9564 90.225 96.1135 89.8389C96.2683 89.4559 96.4788 89.0909 96.745 88.7439Z" fill="#415FFF"/>
<path d="M92.4985 93.7109L97.4042 98.9484L99.4147 97.0653L100.328 98.0404L95.2673 102.78L94.354 101.805L96.3645 99.9223L91.4587 94.6847L92.4985 93.7109Z" fill="#415FFF"/>
<path d="M88.7286 97.1176L91.2229 105.687L89.4875 106.846L82.5292 101.256L83.7484 100.442L90.0145 105.442L89.749 105.619L87.5094 97.9316L88.7286 97.1176ZM88.5088 99.4819L89.2473 100.588L85.5306 103.069L84.7921 101.963L88.5088 99.4819Z" fill="#415FFF"/>
<path d="M81.37 101.755L84.8026 109.545L81.584 110.963C81.5083 110.996 81.4093 111.036 81.2872 111.081C81.1666 111.13 81.0518 111.167 80.9429 111.194C80.4619 111.324 80.0245 111.338 79.6307 111.236C79.2333 111.135 78.8864 110.939 78.5901 110.648C78.2917 110.362 78.0479 110.004 77.8588 109.575C77.5791 108.94 77.4988 108.323 77.618 107.724C77.7387 107.128 78.107 106.63 78.7228 106.229L79.2585 105.935L81.2654 105.051L80.0664 102.33L81.37 101.755ZM76.8965 103.727L79.8296 106.219L78.6331 107.096L75.4198 104.377L76.8965 103.727ZM81.8017 106.268L79.9409 107.088C79.8688 107.119 79.7892 107.159 79.7023 107.206C79.6153 107.253 79.5387 107.304 79.4725 107.359C79.28 107.508 79.1526 107.678 79.0904 107.869C79.0245 108.062 79.0045 108.256 79.0303 108.451C79.0525 108.648 79.1002 108.83 79.1733 108.996C79.2464 109.162 79.3481 109.319 79.4785 109.468C79.6068 109.623 79.7643 109.741 79.9509 109.822C80.1339 109.905 80.3455 109.926 80.5857 109.885C80.671 109.873 80.7595 109.849 80.8512 109.813C80.9446 109.781 81.0273 109.748 81.0994 109.717L82.9602 108.897L81.8017 106.268Z" fill="#415FFF"/>
<path d="M72.3231 105.182L74.0948 112.136L76.7641 111.456L77.0939 112.751L70.3747 114.462L70.0449 113.168L72.7143 112.488L70.9426 105.534L72.3231 105.182Z" fill="#415FFF"/>
<path d="M67.5009 106.322L68.2876 114.797L62.8137 115.305L62.6902 113.975L66.7456 113.599L66.5517 111.509L63.2026 111.82L63.0791 110.49L66.4282 110.179L66.2059 107.783L62.1505 108.16L62.027 106.83L67.5009 106.322Z" fill="#415FFF"/>
<path d="M59.707 106.946L59.0183 115.431L56.3139 115.211C56.2432 115.205 56.104 115.192 55.8961 115.171C55.6843 115.15 55.4812 115.12 55.2867 115.08C54.622 114.939 54.0739 114.654 53.6423 114.223C53.2064 113.797 52.8933 113.271 52.7028 112.647C52.5123 112.022 52.4462 111.351 52.5046 110.632C52.5629 109.913 52.7364 109.261 53.0251 108.675C53.3138 108.09 53.7078 107.62 54.2071 107.265C54.7022 106.914 55.2891 106.722 55.9678 106.69C56.1621 106.682 56.3655 106.685 56.578 106.698C56.7904 106.712 56.9319 106.721 57.0026 106.727L59.707 106.946ZM58.1549 108.167L56.8941 108.064C56.7762 108.055 56.6267 108.047 56.4453 108.04C56.2601 108.033 56.0957 108.037 55.952 108.053C55.5453 108.095 55.2048 108.247 54.9305 108.51C54.6561 108.772 54.4436 109.101 54.2929 109.496C54.1383 109.891 54.043 110.31 54.007 110.754C53.9697 111.213 53.9955 111.65 54.0844 112.065C54.1733 112.479 54.3343 112.834 54.5673 113.13C54.7963 113.425 55.1042 113.626 55.491 113.733C55.6298 113.776 55.7914 113.807 55.9757 113.826C56.1557 113.848 56.3047 113.864 56.4225 113.874L57.6834 113.976L58.1549 108.167Z" fill="#415FFF"/>
<path d="M32.904 97.9751C33.3513 98.298 33.715 98.6796 33.995 99.1198C34.2695 99.561 34.4446 100.042 34.5203 100.563C34.5929 101.082 34.5519 101.624 34.3975 102.188C34.2407 102.755 33.9548 103.327 33.5396 103.902C32.9952 104.656 32.3899 105.198 31.7235 105.529C31.0548 105.863 30.3734 105.995 29.6792 105.927C28.9828 105.861 28.3278 105.607 27.7143 105.164C26.8644 104.551 26.3347 103.867 26.1255 103.114C25.9107 102.361 25.9726 101.565 26.3113 100.725L27.6253 101.389C27.461 101.893 27.4398 102.373 27.5617 102.831C27.6813 103.291 27.9711 103.688 28.4312 104.02C28.8899 104.361 29.3476 104.538 29.8043 104.552C30.261 104.565 30.7037 104.44 31.1324 104.176C31.558 103.91 31.9529 103.524 32.3174 103.019C32.6818 102.515 32.9223 102.02 33.0388 101.535C33.1529 101.054 33.1316 100.599 32.9748 100.17C32.8148 99.7381 32.5054 99.352 32.0467 99.0112C31.7007 98.7566 31.3506 98.5986 30.9963 98.5373C30.6397 98.4791 30.2838 98.5211 29.9285 98.6632C29.5709 98.8085 29.2204 99.0585 28.8768 99.4132L30.0942 100.292L29.4403 101.198L26.9959 99.4333C27.0265 99.3776 27.0759 99.299 27.1442 99.1977C27.2125 99.0963 27.2536 99.036 27.2674 99.0169C27.7379 98.365 28.286 97.8785 28.9115 97.5573C29.5316 97.2369 30.185 97.106 30.8719 97.1644C31.5588 97.2228 32.2362 97.493 32.904 97.9751Z" fill="#415FFF"/>
<path d="M28.7209 94.9888L22.6366 100.942L18.792 97.0125L19.7469 96.0782L22.5952 98.9893L24.0952 97.5217L21.7429 95.1176L22.6978 94.1833L25.05 96.5874L26.7697 94.9049L23.9213 91.9937L24.8762 91.0594L28.7209 94.9888Z" fill="#415FFF"/>
<path d="M22.2204 87.6908L16.3712 91.8483L17.9671 94.0936L16.8782 94.8675L12.8611 89.2159L13.95 88.4419L15.5459 90.6872L21.3951 86.5296L22.2204 87.6908Z" fill="#415FFF"/>
<path d="M16.5072 76.9527C16.739 77.5306 16.8475 78.0921 16.8326 78.6373C16.8163 79.1789 16.6818 79.6744 16.429 80.124C16.1711 80.5713 15.8004 80.9387 15.317 81.226L14.5584 79.938C14.9796 79.6332 15.2456 79.2484 15.3564 78.7836C15.4657 78.3152 15.425 77.8432 15.2343 77.3677C15.1213 77.0861 14.9711 76.8385 14.7835 76.625C14.596 76.4115 14.3873 76.2617 14.1574 76.1755C13.9261 76.0858 13.6879 76.09 13.4428 76.1883C13.3331 76.2323 13.2399 76.2909 13.1631 76.3642C13.0827 76.4389 13.0206 76.5275 12.9768 76.63C12.9315 76.7288 12.9023 76.8467 12.8893 76.9835C12.8711 77.1182 12.8694 77.2675 12.8842 77.4314L13.0993 79.7144C13.1185 79.9105 13.1271 80.1278 13.1252 80.3664C13.1181 80.6028 13.0762 80.8425 12.9996 81.0855C12.9179 81.3263 12.7835 81.5522 12.5963 81.7631C12.4041 81.9719 12.1342 82.1459 11.7867 82.2853C11.2783 82.4892 10.8009 82.5321 10.3544 82.414C9.90274 82.2937 9.50368 82.0504 9.1572 81.6841C8.80925 81.3141 8.53001 80.8614 8.31948 80.3259C8.10601 79.7831 8.00563 79.2629 8.01833 78.7653C8.02738 78.2691 8.14659 77.8095 8.37597 77.3863C8.60535 76.9631 8.9398 76.5954 9.37931 76.2832L10.1961 77.6052C9.94164 77.7752 9.7512 77.9832 9.62484 78.2292C9.49335 78.473 9.42481 78.7362 9.41922 79.0186C9.41216 79.2975 9.45926 79.5737 9.56051 79.8473C9.66248 80.1121 9.801 80.341 9.97608 80.534C10.146 80.7249 10.3357 80.859 10.5451 80.9363C10.753 81.01 10.9593 81.0058 11.1641 80.9237C11.358 80.8459 11.4936 80.7236 11.571 80.5567C11.6448 80.3912 11.6838 80.2079 11.688 80.0066C11.687 79.8032 11.6744 79.6023 11.6501 79.404L11.4774 77.8301C11.4508 77.6157 11.433 77.3702 11.424 77.0936C11.4149 76.817 11.4443 76.5356 11.5121 76.2494C11.5799 75.9632 11.7132 75.6974 11.912 75.4521C12.1093 75.2031 12.4055 74.9994 12.8005 74.8409C13.2102 74.6766 13.6049 74.6181 13.9848 74.6653C14.3595 74.7103 14.7072 74.8362 15.0279 75.043C15.3486 75.2498 15.635 75.5192 15.8871 75.8512C16.1377 76.1795 16.3444 76.5467 16.5072 76.9527Z" fill="#415FFF"/>
<path d="M14.4243 70.9114L7.41954 72.4705L8.01801 75.1594L6.71399 75.4496L5.20753 68.6814L6.51155 68.3911L7.11002 71.08L14.1148 69.5209L14.4243 70.9114Z" fill="#415FFF"/>
<path d="M13.3981 65.9487L4.75343 63.7286L4.64076 61.645L12.9956 58.5056L13.0747 59.9694L5.5801 62.8137L5.56286 62.4949L13.3189 64.4849L13.3981 65.9487ZM11.4757 64.555L10.1476 64.6268L9.90633 60.1644L11.2344 60.0926L11.4757 64.555Z" fill="#415FFF"/>
<path d="M13.1485 57.0761L4.697 56.0616L5.11622 52.5695C5.12608 52.4873 5.14267 52.3821 5.166 52.2539C5.18541 52.1253 5.21148 52.0074 5.24419 51.9002C5.37725 51.42 5.588 51.0365 5.87646 50.7496C6.16539 50.4588 6.51074 50.2602 6.9125 50.1536C7.31083 50.0426 7.74279 50.0151 8.20841 50.071C8.89704 50.1537 9.46892 50.399 9.92403 50.8068C10.3752 51.2143 10.6163 51.785 10.6473 52.519L10.6275 53.1299L10.3661 55.3073L13.3183 55.6617L13.1485 57.0761ZM13.7311 52.2224L10.0918 53.4764L9.94745 52.0004L13.9235 50.6202L13.7311 52.2224ZM9.04558 55.1488L9.28795 53.1298C9.29734 53.0516 9.304 52.963 9.30792 52.8643C9.31183 52.7655 9.30699 52.6737 9.29337 52.5887C9.26286 52.3469 9.18125 52.1505 9.04854 51.9996C8.9163 51.8448 8.75956 51.7288 8.57832 51.6515C8.39756 51.5702 8.21718 51.5188 8.0372 51.4972C7.85721 51.4756 7.66979 51.4829 7.47494 51.519C7.27664 51.5508 7.09493 51.6262 6.92981 51.7453C6.76515 51.8605 6.63939 52.0319 6.55252 52.2596C6.51918 52.339 6.49468 52.4273 6.47902 52.5247C6.45946 52.6216 6.44497 52.7091 6.43558 52.7874L6.19321 54.8064L9.04558 55.1488Z" fill="#415FFF"/>
<path d="M14.7797 47.6164L7.89007 45.6085L7.11933 48.2531L5.83676 47.8793L7.77684 41.2224L9.05941 41.5962L8.28867 44.2408L15.1783 46.2487L14.7797 47.6164Z" fill="#415FFF"/>
<path d="M16.3005 42.7162L8.61676 39.0533L10.9824 34.0909L12.1883 34.6658L10.4357 38.3422L12.33 39.2453L13.7773 36.2091L14.9832 36.784L13.5359 39.8201L15.7076 40.8554L17.4602 37.179L18.6661 37.7538L16.3005 42.7162Z" fill="#415FFF"/>
<path d="M19.5566 36.0029L12.6005 31.0968L14.1644 28.8796C14.2052 28.8216 14.2875 28.7084 14.4111 28.54C14.537 28.3684 14.6663 28.2089 14.7992 28.0615C15.2585 27.5608 15.7831 27.234 16.3732 27.0811C16.9623 26.9227 17.5741 26.9202 18.2086 27.0736C18.8431 27.2269 19.455 27.5114 20.0443 27.9271C20.6337 28.3427 21.107 28.8237 21.4644 29.3699C21.8218 29.9161 22.0264 30.4944 22.0781 31.1048C22.1289 31.7097 21.9955 32.3124 21.678 32.9131C21.586 33.0845 21.4803 33.2583 21.3609 33.4345C21.2415 33.6106 21.1613 33.7277 21.1204 33.7857L19.5566 36.0029ZM19.2948 34.046L20.0239 33.0123C20.092 32.9157 20.1751 32.791 20.2731 32.6384C20.3734 32.4825 20.4532 32.3386 20.5124 32.2067C20.6829 31.8351 20.7249 31.4645 20.6384 31.0948C20.5519 30.7252 20.3769 30.3751 20.1133 30.0445C19.852 29.7107 19.5394 29.4155 19.1755 29.1589C18.7988 28.8931 18.4093 28.6932 18.0072 28.5591C17.6051 28.4249 17.2175 28.3831 16.8444 28.4334C16.4736 28.4805 16.1441 28.6435 15.8558 28.9224C15.7482 29.0201 15.6395 29.1436 15.5295 29.2927C15.4186 29.4362 15.329 29.5564 15.2609 29.653L14.5318 30.6867L19.2948 34.046Z" fill="#415FFF"/>
<path d="M37.9394 18.8157C37.4514 19.0732 36.9481 19.2297 36.4293 19.2852C35.9121 19.3353 35.4032 19.2786 34.9025 19.1151C34.4052 18.9498 33.9382 18.6727 33.5013 18.2839C33.0625 17.8916 32.6776 17.3818 32.3465 16.7545C31.9124 15.932 31.6951 15.1488 31.6947 14.4049C31.6923 13.6575 31.8759 12.988 32.2455 12.3964C32.6132 11.8013 33.1316 11.3272 33.8007 10.974C34.7278 10.4847 35.5755 10.3136 36.3438 10.4607C37.1137 10.6024 37.7996 11.0113 38.4015 11.6873L37.223 12.5699C36.8447 12.1993 36.4236 11.967 35.9597 11.8732C35.4939 11.7759 35.0101 11.8597 34.5082 12.1246C33.9992 12.3843 33.6372 12.7157 33.4221 13.1189C33.2071 13.522 33.1228 13.9742 33.169 14.4756C33.2188 14.9751 33.389 15.5003 33.6796 16.0509C33.9702 16.6016 34.3068 17.0366 34.6893 17.3561C35.07 17.6721 35.4874 17.8551 35.9415 17.905C36.3991 17.9532 36.8824 17.8473 37.3915 17.5876C37.7732 17.3906 38.0702 17.147 38.2824 16.8567C38.4927 16.563 38.6131 16.2254 38.6435 15.844C38.6721 15.4591 38.6037 15.034 38.4383 14.5687L37.1105 15.2695L36.589 14.2815L39.2552 12.8743C39.2916 12.9264 39.34 13.0055 39.4006 13.1118C39.4611 13.218 39.4968 13.2815 39.5079 13.3024C39.8831 14.0134 40.0758 14.7205 40.086 15.4236C40.0978 16.1214 39.9251 16.7651 39.5678 17.3547C39.2106 17.9443 38.6678 18.4313 37.9394 18.8157Z" fill="#415FFF"/>
<path d="M42.3969 16.4013L39.7693 8.30489L44.9982 6.60788L45.4106 7.87857L41.5367 9.13582L42.1845 11.1318L45.3837 10.0935L45.7961 11.3642L42.5969 12.4025L43.3395 14.6909L47.2134 13.4336L47.6258 14.7043L42.3969 16.4013Z" fill="#415FFF"/>
<path d="M51.972 13.788L50.8711 6.69672L48.149 7.11931L47.9441 5.79919L54.7959 4.73545L55.0008 6.05557L52.2788 6.47817L53.3797 13.5694L51.972 13.788Z" fill="#415FFF"/>
<path d="M64.1035 13.4653C63.4829 13.4149 62.9319 13.2615 62.4506 13.005C61.9732 12.7487 61.5898 12.4072 61.3002 11.9805C61.0149 11.5501 60.8515 11.0544 60.8101 10.4936L62.3012 10.3893C62.3861 10.9022 62.6118 11.312 62.9783 11.6185C63.3488 11.9253 63.7893 12.0995 64.3 12.1409C64.6024 12.1655 64.891 12.1415 65.1658 12.0689C65.4405 11.9963 65.6677 11.8764 65.8473 11.7091C66.0309 11.5421 66.1334 11.327 66.1547 11.0639C66.1643 10.946 66.1534 10.8364 66.1221 10.735C66.0911 10.6297 66.0395 10.5346 65.9674 10.4496C65.8991 10.365 65.8066 10.2864 65.69 10.2136C65.5776 10.1373 65.4447 10.0692 65.2914 10.0093L63.1523 9.18327C62.9682 9.11297 62.7698 9.02373 62.5572 8.91553C62.3488 8.80372 62.153 8.65933 61.9697 8.48234C61.7906 8.30175 61.6484 8.08065 61.5431 7.81907C61.4421 7.55387 61.4067 7.2347 61.437 6.86155C61.4813 6.31557 61.6559 5.86913 61.9609 5.52223C62.27 5.17172 62.6658 4.92313 63.1482 4.77646C63.6346 4.63011 64.1643 4.58218 64.7375 4.63266C65.3185 4.68378 65.8288 4.82602 66.2685 5.05941C66.7085 5.28886 67.0667 5.60063 67.3431 5.99472C67.6195 6.38881 67.7994 6.85217 67.8827 7.38478L66.3352 7.52604C66.2965 7.22242 66.1953 6.95918 66.0316 6.73634C65.872 6.50988 65.6671 6.33115 65.4168 6.20012C65.1704 6.06941 64.9022 5.98834 64.6122 5.95689C64.3297 5.93 64.063 5.95184 63.8121 6.02242C63.5655 6.08938 63.3609 6.19929 63.1982 6.35214C63.0395 6.50532 62.9512 6.69189 62.9334 6.91185C62.9165 7.12003 62.9655 7.29599 63.0803 7.43974C63.1955 7.57957 63.3422 7.69625 63.5204 7.78979C63.7029 7.87973 63.8883 7.95804 64.0766 8.02472L65.5623 8.57233C65.766 8.64422 65.9936 8.73782 66.2452 8.85313C66.4968 8.96845 66.7356 9.12028 66.9614 9.30863C67.1873 9.49698 67.3657 9.73485 67.4966 10.0222C67.6314 10.3099 67.6816 10.6659 67.6471 11.0901C67.6114 11.53 67.4877 11.9094 67.276 12.2283C67.0685 12.5436 66.8007 12.7986 66.4725 12.9934C66.1444 13.1882 65.7755 13.3243 65.366 13.4017C64.9603 13.4795 64.5395 13.5007 64.1035 13.4653Z" fill="#415FFF"/>
<path d="M70.563 14.297L72.3082 7.33626L69.6363 6.66637L69.9611 5.37054L76.6868 7.05677L76.3619 8.3526L73.69 7.68271L71.9448 14.6435L70.563 14.297Z" fill="#415FFF"/>
<path d="M75.4759 15.5863L81.3392 8.85725L83.2518 9.69158L82.3082 18.5667L80.9645 17.9806L81.7859 10.0066L82.0785 10.1342L76.8196 16.1725L75.4759 15.5863ZM77.5841 14.4938L78.1159 13.2748L82.212 15.0616L81.6802 16.2807L77.5841 14.4938Z" fill="#415FFF"/>
<path d="M83.5089 19.3336L88.2092 12.2369L91.1415 14.1791C91.2105 14.2247 91.2971 14.2868 91.4011 14.3652C91.5074 14.4403 91.6011 14.5165 91.6822 14.5939C92.0515 14.9283 92.2996 15.2888 92.4265 15.6753C92.5566 16.064 92.5791 16.4618 92.494 16.8687C92.4144 17.2744 92.245 17.6727 91.9861 18.0637C91.6031 18.642 91.1272 19.0429 90.5584 19.2665C89.9918 19.4868 89.3736 19.446 88.7038 19.1442L88.1668 18.8523L86.3384 17.6413L84.6966 20.1202L83.5089 19.3336ZM87.5845 22.033L88.0977 18.2181L89.4814 18.7516L88.93 22.9241L87.5845 22.033ZM87.0729 16.5325L88.7682 17.6553C88.8339 17.6989 88.91 17.7445 88.9965 17.7924C89.083 17.8402 89.1673 17.8771 89.2493 17.9031C89.4791 17.9844 89.6912 17.9996 89.8856 17.9487C90.0832 17.9 90.2573 17.8121 90.4078 17.6848C90.5615 17.5598 90.6884 17.4217 90.7885 17.2705C90.8886 17.1194 90.9663 16.9487 91.0214 16.7583C91.0821 16.5669 91.0962 16.3706 91.0639 16.1696C91.0349 15.9708 90.9382 15.7814 90.7737 15.6016C90.7177 15.5362 90.6498 15.4746 90.5698 15.4169C90.492 15.356 90.4203 15.3037 90.3546 15.2602L88.6592 14.1373L87.0729 16.5325Z" fill="#415FFF"/>
<path d="M91.0964 24.9105L95.9639 19.6375L93.9398 17.769L94.8459 16.7874L99.9409 21.4905L99.0348 22.4722L97.0107 20.6037L92.1431 25.8768L91.0964 24.9105Z" fill="#415FFF"/>
<path d="M94.7208 28.3388L101.398 23.0594L104.808 27.3718L103.76 28.2004L101.234 25.0055L99.5874 26.307L101.674 28.9454L100.626 29.774L98.5395 27.1356L96.6523 28.6278L99.1783 31.8226L98.1304 32.6512L94.7208 28.3388Z" fill="#415FFF"/>
<path d="M99.4655 34.445L106.949 30.3886L108.242 32.774C108.276 32.8364 108.341 32.9603 108.437 33.1458C108.535 33.3348 108.62 33.5215 108.693 33.706C108.938 34.3397 108.998 34.9549 108.873 35.5515C108.754 36.1497 108.485 36.6991 108.066 37.1997C107.647 37.7002 107.12 38.1223 106.486 38.466C105.852 38.8096 105.211 39.0204 104.563 39.0982C103.915 39.1761 103.306 39.1028 102.736 38.8783C102.171 38.6554 101.69 38.2684 101.293 37.7173C101.18 37.5588 101.071 37.3869 100.966 37.2017C100.862 37.0165 100.792 36.8927 100.758 36.8303L99.4655 34.445ZM101.335 35.0788L101.938 36.1909C101.994 36.2948 102.069 36.4246 102.163 36.5802C102.258 36.7393 102.351 36.8746 102.443 36.9862C102.701 37.3039 103.014 37.506 103.384 37.5926C103.753 37.6791 104.145 37.6776 104.558 37.5881C104.973 37.5021 105.376 37.353 105.768 37.1408C106.173 36.921 106.525 36.6608 106.824 36.3599C107.122 36.0591 107.332 35.7304 107.452 35.3737C107.575 35.0205 107.575 34.6529 107.453 34.2707C107.413 34.131 107.351 33.9787 107.266 33.814C107.186 33.6509 107.119 33.5174 107.062 33.4134L106.459 32.3013L101.335 35.0788Z" fill="#415FFF"/>
<circle cx="25.5" cy="21.5" r="1.5" fill="#415FFF"/>
<circle cx="42.5" cy="108.5" r="1.5" fill="#415FFF"/>
<circle cx="109.5" cy="49.5" r="1.5" fill="#415FFF"/>
</g>
<defs>
<clipPath id="clip0_6066_57452">
<rect width="120" height="120" rx="60" fill="white"/>
</clipPath>
</defs>
</svg>
