<svg width="1232" height="381" fill="none" xmlns="http://www.w3.org/2000/svg"><path d="M0 12h1232M0 131h1232M0 250h1232M0 369h1232" stroke="#000" stroke-opacity=".08"/><g clip-path="url(#a)"><path d="M801.909 139.098c-67.436-1.159-531.371 8.21-754.909 13.039V382h1187V152.137c-115.93-3.863-364.654-11.88-432.091-13.039Z" stroke="#000" stroke-opacity=".9"/></g><g clip-path="url(#b)"><path d="M801.592 130.102c-67.408-1.2-531.148 8.5-754.592 13.5v238h1186.5v-238c-115.88-4-364.501-12.3-431.908-13.5Z" fill="url(#c)" fill-opacity=".5" stroke="#415FFF" stroke-opacity=".2"/></g><defs><clipPath id="a"><path fill="#fff" transform="translate(48 130)" d="M0 0h1184v251H0z"/></clipPath><clipPath id="b"><path fill="#fff" transform="translate(48 130)" d="M0 0h1184v251H0z"/></clipPath><linearGradient id="c" x1="640.25" y1="130" x2="640.25" y2="381.602" gradientUnits="userSpaceOnUse"><stop stop-color="#415FFF"/><stop offset="1" stop-color="#415FFF" stop-opacity="0"/></linearGradient></defs></svg>