<svg width="1146" height="900" viewBox="0 0 1146 900" fill="none" xmlns="http://www.w3.org/2000/svg">
<path d="M2 1071.96V1695M661.58 432.171V1055.21M332.011 746.99V1370.03M991.592 107.197V730.233M166.785 1071.96V1695M826.365 432.171V1055.21M496.796 746.99V1370.03M1156.38 107.197V730.233M84.6132 899.321V1522.36M744.194 259.529V882.565M414.624 574.347V1197.38M1074.2 -65.4456V557.591M249.398 899.321V1522.36M908.978 259.529V882.565M579.409 574.347V1197.38M1238.99 -65.4456V557.591M43.0857 1011.03V1634.07M702.666 371.238V994.275M373.097 686.057V1309.09M1032.68 46.2643V669.301M207.87 1011.03V1634.07M867.451 371.238V994.275M537.882 686.057V1309.09M1197.46 46.2643V669.301M125.699 838.389V1461.42M785.279 198.596V821.632M455.71 513.415V1136.45M1115.29 -126.378V496.658M290.484 838.389V1461.42M950.064 198.596V821.632M620.495 513.415V1136.45M1280.08 -126.378V496.658M22.7638 939.943V1562.98M682.344 300.15V923.187M352.775 614.969V1238.01M1012.36 -24.8238V598.212M187.548 939.943V1562.98M847.129 300.15V923.187M517.56 614.969V1238.01M1177.14 -24.8238V598.212M105.377 767.301V1390.34M764.957 127.508V750.544M435.388 442.326V1065.36M1094.97 -197.466V425.57M270.162 767.301V1390.34M929.742 127.508V750.544M600.173 442.326V1065.36M1259.75 -197.466V425.57M63.8495 879.01V1502.05M723.43 239.218V862.254M393.861 554.036V1177.07M1053.44 -85.7565V537.28M228.634 879.01V1502.05M888.215 239.218V862.254M558.645 554.036V1177.07M1218.23 -85.7565V537.28M146.463 706.368V1329.4M806.043 66.5751V689.611M476.474 381.394V1004.43M1136.05 -258.399V364.637M311.247 706.368V1329.4M970.828 66.5751V689.611M641.259 381.394V1004.43M1300.84 -258.399V364.637M12.161 967.363V1590.4M671.741 327.57V950.606M342.172 642.389V1265.42M1001.75 2.59586V625.632M176.946 967.363V1590.4M836.526 327.57V950.606M506.957 642.389V1265.42M1166.54 2.59586V625.632M94.7742 794.72V1417.76M754.355 154.927V777.964M424.785 469.746V1092.78M1084.37 -170.047V452.99M259.559 794.72V1417.76M919.139 154.927V777.964M589.57 469.746V1092.78M1249.15 -170.047V452.99M53.2467 906.43V1529.47M712.827 266.637V889.674M383.258 581.456V1204.49M1042.84 -58.3368V564.699M218.031 906.43V1529.47M877.612 266.637V889.674M548.043 581.456V1204.49M1207.62 -58.3368V564.699M135.86 733.788V1356.82M795.44 93.9948V717.031M465.871 408.813V1031.85M1125.45 -230.979V392.057M300.645 733.788V1356.82M960.225 93.9948V717.031M630.656 408.813V1031.85M1290.24 -230.979V392.057M32.9247 835.342V1458.38M692.505 195.549V818.586M362.936 510.368V1133.4M1022.52 -129.425V493.611M197.709 835.342V1458.38M857.29 195.549V818.586M527.721 510.368V1133.4M1187.3 -129.425V493.611M115.538 662.699V1285.74M775.118 22.9067V645.943M445.549 337.725V960.762M1105.13 -302.067V320.969M280.323 662.699V1285.74M939.903 22.9067V645.943M610.334 337.725V960.762M1269.91 -302.067V320.969M74.0105 774.409V1397.45M733.591 134.617V757.653M404.022 449.435V1072.47M1063.6 -190.358V432.679M238.795 774.409V1397.45M898.376 134.617V757.653M568.806 449.435V1072.47M1228.39 -190.358V432.679M156.624 601.767V1224.8M816.204 -38.0259V585.01M486.635 276.793V899.829M1146.22 -363V260.036M321.408 601.767V1224.8M980.989 -38.0259V585.01M651.419 276.793V899.829M1311 -363V260.036" stroke="url(#paint0_linear_2168_146135)" stroke-width="3"/>
<defs>
<linearGradient id="paint0_linear_2168_146135" x1="656.5" y1="-363" x2="656.5" y2="1695" gradientUnits="userSpaceOnUse">
<stop offset="0.379007" stop-color="white"/>
<stop offset="0.398362" stop-color="#00FFD1"/>
<stop offset="0.442803" stop-color="#415FFF"/>
</linearGradient>
</defs>
</svg>
