<svg width="639" height="805" viewBox="0 0 639 805" fill="none" xmlns="http://www.w3.org/2000/svg">
<path d="M1 699.394V1003.06M322.476 387.562V691.227M161.846 541.003V844.668M483.322 229.172V532.836M81.3152 699.394V1003.06M402.791 387.562V691.227M242.161 541.003V844.668M563.637 229.172V532.836M41.2653 615.249V918.914M362.741 303.417V607.082M202.111 456.858V760.523M523.587 145.027V448.691M121.58 615.249V918.914M443.057 303.417V607.082M282.426 456.858V760.523M603.902 145.027V448.691M21.025 669.696V973.361M342.501 357.864V661.529M181.871 511.305V814.97M503.347 199.473V503.138M101.34 669.696V973.361M422.816 357.864V661.529M262.186 511.305V814.97M583.662 199.473V503.138M61.2902 585.551V889.215M382.766 273.719V577.384M222.136 427.16V730.825M543.612 115.328V418.993M141.605 585.551V889.215M463.082 273.719V577.384M302.451 427.16V730.825M623.927 115.328V418.993M11.1201 635.048V938.713M332.596 323.216V626.881M171.966 476.657V780.322M493.442 266.825V468.49M91.4354 635.048V938.713M412.912 323.216V626.881M252.281 476.657V780.322M573.757 164.825V468.49M51.3854 550.903V854.568M372.862 239.071V542.736M212.231 392.512V696.177M533.707 80.6803V384.345M131.701 550.903V854.568M453.177 239.071V542.736M292.546 392.512V696.177M614.023 80.6803V384.345M31.1451 605.35V909.014M352.621 293.518V597.183M191.991 446.959V750.624M513.467 135.127V438.792M111.46 605.35V909.014M432.937 293.518V597.183M272.306 446.959V750.624M593.782 135.127V438.792M71.4104 521.205V824.869M392.887 229.373V513.037M232.256 362.814V666.479M553.732 50.982V354.647M151.726 521.205V824.869M473.202 289.373V513.037M312.571 362.814V666.479M634.048 50.982V354.647M5.95241 648.412V952.077M327.429 336.58V640.245M166.798 490.021V793.686M488.274 280.19V481.854M86.2676 648.412V952.077M407.744 336.58V640.245M247.113 490.021V793.686M568.59 178.19V481.854M46.2177 564.267V867.932M367.694 252.435V556.1M207.063 405.876V709.541M528.54 94.0445V397.709M126.533 564.267V867.932M448.009 252.435V556.1M287.379 405.876V709.541M608.855 94.0445V397.709M25.9774 618.714V922.379M347.454 306.882V610.547M186.823 460.323V763.988M508.299 148.491V452.156M106.293 618.714V922.379M427.769 306.882V610.547M267.138 460.323V763.988M588.615 148.491V452.156M66.2427 534.569V838.233M387.719 242.737V526.402M227.088 376.178V679.843M548.565 64.3462V368.011M146.558 534.569V838.233M468.034 302.737V526.402M307.404 376.178V679.843M628.88 64.3462V368.011M16.0726 584.066V887.731M337.549 272.234V575.899M176.918 425.675V729.34M498.395 215.843V417.508M96.3878 584.066V887.731M417.864 272.234V575.899M257.234 425.675V729.34M578.71 113.843V417.508M56.3378 499.921V803.585M377.814 258.089V491.754M217.184 341.53V645.195M538.66 29.6983V333.363M136.653 499.921V803.585M458.129 268.089V491.754M297.499 341.53V645.195M618.975 29.6983V333.363M36.0975 554.368V858.032M357.574 242.536V546.201M196.943 395.977V699.642M518.419 84.1451V387.81M116.413 554.368V858.032M437.889 242.536V546.201M277.259 395.977V699.642M598.735 84.1451V387.81M76.3628 470.222V773.887M397.839 228.391V462.055M237.209 311.832V615.496M558.685 0V303.665M156.678 470.222V773.887M478.154 238.391V462.055M317.524 311.832V615.496M639 0V303.665" stroke="url(#paint0_linear_2168_146809)" stroke-width="1.46218"/>
<defs>
<linearGradient id="paint0_linear_2168_146809" x1="320" y1="0" x2="320" y2="1003.06" gradientUnits="userSpaceOnUse">
<stop offset="0.379007" stop-color="white"/>
<stop offset="0.398362" stop-color="#00FFD1"/>
<stop offset="0.442803" stop-color="#415FFF"/>
</linearGradient>
</defs>
</svg>
