<?xml version="1.0" encoding="UTF-8"?>
<svg xmlns="http://www.w3.org/2000/svg" xmlns:xlink="http://www.w3.org/1999/xlink" width="320px" height="444px" viewBox="0 0 320 443" version="1.1">
<defs>
<clipPath id="clip1">
  <path d="M 143.203125 0 L 320 0 L 320 176.492188 L 143.203125 176.492188 Z M 143.203125 0 "/>
</clipPath>
<linearGradient id="linear0" gradientUnits="userSpaceOnUse" x1="348.487" y1="4.79116" x2="185.218994" y2="200" >
<stop offset="0.293743" style="stop-color:rgb(100%,100%,100%);stop-opacity:1;"/>
<stop offset="0.443462" style="stop-color:rgb(0%,100%,81.960784%);stop-opacity:1;"/>
<stop offset="0.536609" style="stop-color:rgb(25.490196%,37.254902%,100%);stop-opacity:1;"/>
</linearGradient>
<clipPath id="clip2">
  <path d="M 0 266.507812 L 176.796875 266.507812 L 176.796875 443 L 0 443 Z M 0 266.507812 "/>
</clipPath>
<linearGradient id="linear1" gradientUnits="userSpaceOnUse" x1="13.5135" y1="497.209015" x2="176.781006" y2="302" >
<stop offset="0.293743" style="stop-color:rgb(100%,100%,100%);stop-opacity:1;"/>
<stop offset="0.443462" style="stop-color:rgb(0%,100%,81.960784%);stop-opacity:1;"/>
<stop offset="0.536609" style="stop-color:rgb(25.490196%,37.254902%,100%);stop-opacity:1;"/>
</linearGradient>
</defs>
<g id="surface1">
<g clip-path="url(#clip1)" clip-rule="nonzero">
<path style="fill:none;stroke-width:0.737101;stroke-linecap:butt;stroke-linejoin:miter;stroke:url(#linear0);stroke-miterlimit:4;" d="M 211.998901 50.001693 L 211.998901 0 L 161.998535 0 L 161.998535 50.001693 Z M 211.998901 50.001693 L 261.999268 50.001693 M 211.998901 50.001693 L 211.998901 99.99896 M 261.999268 50.001693 L 261.999268 0 L 311.999634 0 L 311.999634 50.001693 M 261.999268 50.001693 L 311.999634 50.001693 M 261.999268 50.001693 L 261.999268 99.99896 M 211.998901 99.99896 L 161.998535 99.99896 L 161.998535 150.000653 L 211.998901 150.000653 M 211.998901 99.99896 L 211.998901 150.000653 M 211.998901 99.99896 L 261.999268 99.99896 M 211.998901 150.000653 L 211.998901 199.997919 L 261.999268 199.997919 L 261.999268 150.000653 M 211.998901 150.000653 L 261.999268 150.000653 M 261.999268 150.000653 L 311.999634 150.000653 M 261.999268 150.000653 L 261.999268 99.99896 M 311.999634 150.000653 L 311.999634 199.997919 L 362 199.997919 L 362 150.000653 Z M 311.999634 150.000653 L 311.999634 99.99896 M 311.999634 99.99896 L 362 99.99896 L 362 50.001693 L 311.999634 50.001693 M 311.999634 99.99896 L 261.999268 99.99896 M 311.999634 99.99896 L 311.999634 50.001693 " transform="matrix(0.883978,0,0,0.88247,0,0)"/>
</g>
<g clip-path="url(#clip2)" clip-rule="nonzero">
<path style="fill:none;stroke-width:0.737101;stroke-linecap:butt;stroke-linejoin:miter;stroke:url(#linear1);stroke-miterlimit:4;" d="M 150.001099 451.998307 L 150.001099 502 L 200.001465 502 L 200.001465 451.998307 Z M 150.001099 451.998307 L 100.000732 451.998307 M 150.001099 451.998307 L 150.001099 402.00104 M 100.000732 451.998307 L 100.000732 502 L 50.000366 502 L 50.000366 451.998307 M 100.000732 451.998307 L 50.000366 451.998307 M 100.000732 451.998307 L 100.000732 402.00104 M 150.001099 402.00104 L 200.001465 402.00104 L 200.001465 351.999347 L 150.001099 351.999347 M 150.001099 402.00104 L 150.001099 351.999347 M 150.001099 402.00104 L 100.000732 402.00104 M 150.001099 351.999347 L 150.001099 302.002081 L 100.000732 302.002081 L 100.000732 351.999347 M 150.001099 351.999347 L 100.000732 351.999347 M 100.000732 351.999347 L 50.000366 351.999347 M 100.000732 351.999347 L 100.000732 402.00104 M 50.000366 351.999347 L 50.000366 302.002081 L 0 302.002081 L 0 351.999347 Z M 50.000366 351.999347 L 50.000366 402.00104 M 50.000366 402.00104 L 0 402.00104 L 0 451.998307 L 50.000366 451.998307 M 50.000366 402.00104 L 100.000732 402.00104 M 50.000366 402.00104 L 50.000366 451.998307 " transform="matrix(0.883978,0,0,0.88247,0,0)"/>
</g>
</g>
</svg>
