<svg width="1440" height="895" viewBox="0 0 1440 895" fill="none" xmlns="http://www.w3.org/2000/svg">
<g clip-path="url(#clip0_6058_77561)">
<path d="M839.5 284.5V81H636V284.5H839.5ZM839.5 284.5H1043M839.5 284.5V488M1043 284.5V81H1246.5V284.5M1043 284.5H1246.5M1043 284.5V488M839.5 488H636V691.5H839.5M839.5 488V691.5M839.5 488H1043M839.5 691.5V895H1043V691.5M839.5 691.5H1043M1043 691.5H1246.5M1043 691.5V488M1246.5 691.5V895H1450V691.5H1246.5ZM1246.5 691.5V488M1246.5 488H1450V284.5H1246.5M1246.5 488H1043M1246.5 488V284.5" stroke="url(#paint0_linear_6058_77561)" stroke-width="3"/>
</g>
<g clip-path="url(#clip1_6058_77561)">
<path d="M516.5 610.5V814H720V610.5H516.5ZM516.5 610.5H313M516.5 610.5V407M313 610.5V814H109.5V610.5M313 610.5H109.5M313 610.5V407M516.5 407H720V203.5H516.5M516.5 407V203.5M516.5 407H313M516.5 203.5V-3.43323e-05H313V203.5M516.5 203.5H313M313 203.5H109.5M313 203.5V407M109.5 203.5V-3.43323e-05H-94V203.5H109.5ZM109.5 203.5V407M109.5 407H-94V610.5H109.5M109.5 407H313M109.5 407V610.5" stroke="url(#paint1_linear_6058_77561)" stroke-width="3"/>
</g>
<defs>
<linearGradient id="paint0_linear_6058_77561" x1="1395" y1="100.5" x2="730.5" y2="895" gradientUnits="userSpaceOnUse">
<stop offset="0.293743" stop-color="white"/>
<stop offset="0.443462" stop-color="#00FFD1"/>
<stop offset="0.536609" stop-color="#415FFF"/>
</linearGradient>
<linearGradient id="paint1_linear_6058_77561" x1="-39" y1="794.5" x2="625.5" y2="-2.36138e-05" gradientUnits="userSpaceOnUse">
<stop offset="0.293743" stop-color="white"/>
<stop offset="0.443462" stop-color="#00FFD1"/>
<stop offset="0.536609" stop-color="#415FFF"/>
</linearGradient>
<clipPath id="clip0_6058_77561">
<rect width="814" height="814" fill="white" transform="translate(636 81)"/>
</clipPath>
<clipPath id="clip1_6058_77561">
<rect width="814" height="814" fill="white" transform="matrix(-1 0 0 -1 720 814)"/>
</clipPath>
</defs>
</svg>
