<svg width="20" height="20" viewBox="0 0 20 20" fill="none" xmlns="http://www.w3.org/2000/svg">
<path d="M18.3331 7.08329C18.3331 9.79996 16.3331 12.0416 13.7331 12.4333V12.3833C13.4747 9.14996 10.8497 6.52496 7.59141 6.26663H7.56641C7.95807 3.66663 10.1997 1.66663 12.9164 1.66663C15.9081 1.66663 18.3331 4.09163 18.3331 7.08329Z" fill="#1C1C1C"/>
<path d="M12.4827 12.4833C12.2743 9.84167 10.1577 7.725 7.51602 7.51667C7.37435 7.50833 7.22435 7.5 7.08268 7.5C4.09102 7.5 1.66602 9.925 1.66602 12.9167C1.66602 15.9083 4.09102 18.3333 7.08268 18.3333C10.0743 18.3333 12.4993 15.9083 12.4993 12.9167C12.4993 12.775 12.491 12.625 12.4827 12.4833ZM7.81602 13.65L7.08268 15L6.34935 13.65L4.99935 12.9167L6.34935 12.1833L7.08268 10.8333L7.81602 12.1833L9.16602 12.9167L7.81602 13.65Z" fill="#1C1C1C"/>
</svg>
