<svg width="20" height="20" viewBox="0 0 20 20" fill="none" xmlns="http://www.w3.org/2000/svg">
<path d="M13.493 1.66663H6.50964C3.4763 1.66663 1.66797 3.47496 1.66797 6.50829V13.4833C1.66797 16.525 3.4763 18.3333 6.50964 18.3333H13.4846C16.518 18.3333 18.3263 16.525 18.3263 13.4916V6.50829C18.3346 3.47496 16.5263 1.66663 13.493 1.66663ZM6.35964 15.125C6.35964 15.4666 6.0763 15.75 5.73464 15.75C5.39297 15.75 5.10964 15.4666 5.10964 15.125V13.4C5.10964 13.0583 5.39297 12.775 5.73464 12.775C6.0763 12.775 6.35964 13.0583 6.35964 13.4V15.125ZM10.6263 15.125C10.6263 15.4666 10.343 15.75 10.0013 15.75C9.65964 15.75 9.3763 15.4666 9.3763 15.125V11.6666C9.3763 11.325 9.65964 11.0416 10.0013 11.0416C10.343 11.0416 10.6263 11.325 10.6263 11.6666V15.125ZM14.893 15.125C14.893 15.4666 14.6096 15.75 14.268 15.75C13.9263 15.75 13.643 15.4666 13.643 15.125V9.94163C13.643 9.59996 13.9263 9.31663 14.268 9.31663C14.6096 9.31663 14.893 9.59996 14.893 9.94163V15.125ZM14.893 7.30829C14.893 7.64996 14.6096 7.93329 14.268 7.93329C13.9263 7.93329 13.643 7.64996 13.643 7.30829V6.49996C11.518 8.68329 8.85964 10.225 5.88464 10.9666C5.83464 10.9833 5.78464 10.9833 5.73464 10.9833C5.4513 10.9833 5.2013 10.7916 5.1263 10.5083C5.04297 10.175 5.24297 9.83329 5.58464 9.74996C8.39297 9.04996 10.893 7.57496 12.8763 5.49163H11.8346C11.493 5.49163 11.2096 5.20829 11.2096 4.86663C11.2096 4.52496 11.493 4.24163 11.8346 4.24163H14.2763C14.3096 4.24163 14.3346 4.25829 14.368 4.25829C14.4096 4.26663 14.4513 4.26663 14.493 4.28329C14.5346 4.29996 14.568 4.32496 14.6096 4.34996C14.6346 4.36663 14.6596 4.37496 14.6846 4.39163C14.693 4.39996 14.693 4.40829 14.7013 4.40829C14.7346 4.44163 14.7596 4.47496 14.7846 4.50829C14.8096 4.54163 14.8346 4.56663 14.843 4.59996C14.8596 4.63329 14.8596 4.66663 14.868 4.70829C14.8763 4.74996 14.893 4.79163 14.893 4.84163C14.893 4.84996 14.9013 4.85829 14.9013 4.86663V7.30829H14.893Z" fill="#1C1C1C"/>
</svg>
