<svg width="20" height="20" viewBox="0 0 20 20" fill="none" xmlns="http://www.w3.org/2000/svg">
<path d="M16.7474 7.68336C15.2391 7.68336 14.6224 6.61669 15.3724 5.30836C15.8057 4.55003 15.5474 3.58336 14.7891 3.15003L13.3474 2.32503C12.6891 1.93336 11.8391 2.1667 11.4474 2.82503L11.3557 2.98336C10.6057 4.2917 9.3724 4.2917 8.61406 2.98336L8.5224 2.82503C8.1474 2.1667 7.2974 1.93336 6.63906 2.32503L5.1974 3.15003C4.43906 3.58336 4.18073 4.55836 4.61406 5.3167C5.3724 6.61669 4.75573 7.68336 3.2474 7.68336C2.38073 7.68336 1.66406 8.39169 1.66406 9.26669V10.7334C1.66406 11.6 2.3724 12.3167 3.2474 12.3167C4.75573 12.3167 5.3724 13.3834 4.61406 14.6917C4.18073 15.45 4.43906 16.4167 5.1974 16.85L6.63906 17.675C7.2974 18.0667 8.1474 17.8334 8.53906 17.175L8.63073 17.0167C9.38073 15.7084 10.6141 15.7084 11.3724 17.0167L11.4641 17.175C11.8557 17.8334 12.7057 18.0667 13.3641 17.675L14.8057 16.85C15.5641 16.4167 15.8224 15.4417 15.3891 14.6917C14.6307 13.3834 15.2474 12.3167 16.7557 12.3167C17.6224 12.3167 18.3391 11.6084 18.3391 10.7334V9.26669C18.3307 8.40003 17.6224 7.68336 16.7474 7.68336ZM9.9974 12.7084C8.50573 12.7084 7.28906 11.4917 7.28906 10C7.28906 8.50836 8.50573 7.2917 9.9974 7.2917C11.4891 7.2917 12.7057 8.50836 12.7057 10C12.7057 11.4917 11.4891 12.7084 9.9974 12.7084Z" fill="#1C1C1C"/>
</svg>
