<svg width="20" height="20" viewBox="0 0 20 20" fill="none" xmlns="http://www.w3.org/2000/svg">
<path d="M13.491 1.66663H6.50768C3.47435 1.66663 1.66602 3.47496 1.66602 6.50829V13.4833C1.66602 16.525 3.47435 18.3333 6.50768 18.3333H13.4827C16.516 18.3333 18.3243 16.525 18.3243 13.4916V6.50829C18.3327 3.47496 16.5243 1.66663 13.491 1.66663ZM14.8743 11.75C14.841 11.825 14.7993 11.8916 14.741 11.95L12.2077 14.4833C12.0827 14.6083 11.9243 14.6666 11.766 14.6666C11.6077 14.6666 11.4493 14.6083 11.3243 14.4833C11.0827 14.2416 11.0827 13.8416 11.3243 13.6L12.791 12.1333H5.70768C5.36602 12.1333 5.08268 11.85 5.08268 11.5083C5.08268 11.1666 5.36602 10.8833 5.70768 10.8833H14.2993C14.3827 10.8833 14.4577 10.9 14.541 10.9333C14.691 11 14.816 11.1166 14.8827 11.275C14.9327 11.425 14.9327 11.6 14.8743 11.75ZM14.291 9.10829H5.70768C5.62435 9.10829 5.54935 9.09163 5.46602 9.05829C5.31602 8.99163 5.19102 8.87496 5.12435 8.71663C5.05768 8.56663 5.05768 8.39163 5.12435 8.24163C5.15768 8.16663 5.19935 8.09996 5.25768 8.04163L7.79102 5.50829C8.03268 5.26663 8.43268 5.26663 8.67435 5.50829C8.91602 5.74996 8.91602 6.14996 8.67435 6.39163L7.21602 7.85829H14.2993C14.641 7.85829 14.9243 8.14163 14.9243 8.48329C14.9243 8.82496 14.641 9.10829 14.291 9.10829Z" fill="#1C1C1C"/>
</svg>
