<svg width="20" height="20" viewBox="0 0 20 20" fill="none" xmlns="http://www.w3.org/2000/svg">
<path d="M7.49935 1.66663C5.31602 1.66663 3.54102 3.44163 3.54102 5.62496C3.54102 7.76663 5.21602 9.49996 7.39935 9.57496C7.46602 9.56663 7.53268 9.56663 7.58268 9.57496C7.59935 9.57496 7.60768 9.57496 7.62435 9.57496C7.63268 9.57496 7.63268 9.57496 7.64102 9.57496C9.77435 9.49996 11.4493 7.76663 11.4577 5.62496C11.4577 3.44163 9.68268 1.66663 7.49935 1.66663Z" fill="#1C1C1C"/>
<path d="M11.7328 11.7915C9.40781 10.2415 5.61615 10.2415 3.27448 11.7915C2.21615 12.4999 1.63281 13.4582 1.63281 14.4832C1.63281 15.5082 2.21615 16.4582 3.26615 17.1582C4.43281 17.9415 5.96615 18.3332 7.49948 18.3332C9.03281 18.3332 10.5661 17.9415 11.7328 17.1582C12.7828 16.4499 13.3661 15.4999 13.3661 14.4665C13.3578 13.4415 12.7828 12.4915 11.7328 11.7915Z" fill="#1C1C1C"/>
<path d="M16.6578 6.11671C16.7911 7.73338 15.6411 9.15004 14.0495 9.34171C14.0411 9.34171 14.0411 9.34171 14.0328 9.34171H14.0078C13.9578 9.34171 13.9078 9.34171 13.8661 9.35838C13.0578 9.40004 12.3161 9.14171 11.7578 8.66671C12.6161 7.90004 13.1078 6.75004 13.0078 5.50004C12.9495 4.82504 12.7161 4.20838 12.3661 3.68338C12.6828 3.52504 13.0495 3.42504 13.4245 3.39171C15.0578 3.25004 16.5161 4.46671 16.6578 6.11671Z" fill="#1C1C1C"/>
<path d="M18.3249 13.8247C18.2582 14.633 17.7415 15.333 16.8749 15.808C16.0415 16.2663 14.9915 16.483 13.9499 16.458C14.5499 15.9163 14.8999 15.2413 14.9665 14.5247C15.0499 13.4913 14.5582 12.4997 13.5749 11.708C13.0165 11.2663 12.3665 10.9163 11.6582 10.658C13.4999 10.1247 15.8165 10.483 17.2415 11.633C18.0082 12.2497 18.3999 13.0247 18.3249 13.8247Z" fill="#1C1C1C"/>
</svg>
