<svg width="24" height="24" viewBox="0 0 24 24" fill="none" xmlns="http://www.w3.org/2000/svg">
<path d="M14.8476 10.614C14.8968 11.0963 14.925 11.5631 14.925 12C14.925 12.8178 14.8261 13.7413 14.675 14.675C13.7413 14.8261 12.8178 14.925 12 14.925C11.1859 14.925 10.2627 14.8264 9.32495 14.6747C9.17384 13.7411 9.075 12.8177 9.075 12C9.075 11.5633 9.10319 11.0964 9.15248 10.614C10.1366 10.7715 11.1184 10.875 12 10.875C12.8816 10.875 13.8634 10.7716 14.8476 10.614Z" fill="white"/>
<path d="M16.1788 10.3709C16.2396 10.9354 16.275 11.4849 16.275 12C16.275 12.7517 16.1998 13.5762 16.0799 14.4131C17.7793 14.0585 19.35 13.6055 20.1914 13.3476C20.4634 13.2643 20.5702 13.2311 20.7136 13.1738C20.7852 13.1451 20.8509 13.116 20.9365 13.0751C20.9784 12.7226 21 12.3638 21 12C21 11.0383 20.8492 10.1118 20.5699 9.24297L20.4971 9.26586C19.6173 9.53353 17.9701 10.0067 16.1788 10.3709Z" fill="white"/>
<path d="M20.0586 7.98812C19.1741 8.25618 17.6391 8.69177 15.9942 9.03088C15.6153 6.72794 14.9511 4.43101 14.6316 3.39084C17.0076 4.11623 18.9663 5.79829 20.0586 7.98812Z" fill="white"/>
<path d="M14.6671 9.27625C13.736 9.42669 12.8154 9.525 12 9.525C11.1846 9.525 10.2641 9.4267 9.33294 9.27625C9.68975 7.09719 10.3267 4.87119 10.6524 3.80857C10.7357 3.53662 10.7689 3.42981 10.8262 3.28644C10.8549 3.21482 10.884 3.14913 10.9249 3.06355C11.2774 3.02159 11.6362 3 12 3C12.38 3 12.7546 3.02356 13.1222 3.06929C13.13 3.09912 13.1373 3.12582 13.1444 3.15108C13.1654 3.22571 13.1984 3.3306 13.2538 3.50661L13.2596 3.52509C13.5373 4.40762 14.273 6.86916 14.6671 9.27625Z" fill="white"/>
<path d="M8.00575 9.03086C8.38295 6.73806 9.04274 4.45351 9.36164 3.41298L9.36843 3.39083C6.99237 4.11621 5.03374 5.79827 3.94144 7.98811C4.82587 8.25616 6.36082 8.69174 8.00575 9.03086Z" fill="white"/>
<path d="M3.43015 9.24296C3.15084 10.1118 3 11.0383 3 12C3 12.3762 3.02308 12.747 3.06791 13.1111L3.20975 13.1584L3.21088 13.1588L3.21227 13.1592L3.21325 13.1596C3.2589 13.1747 4.5969 13.6166 6.35895 14.055C6.85616 14.1787 7.38263 14.3009 7.92005 14.413C7.80021 13.5762 7.725 12.7516 7.725 12C7.725 11.4847 7.76035 10.9352 7.82119 10.3709C6.02938 10.0066 4.38187 9.53324 3.50226 9.26562L3.49614 9.26376L3.43015 9.24296Z" fill="white"/>
<path d="M12 16.275C12.7517 16.275 13.5762 16.1998 14.4131 16.0799C14.0585 17.7792 13.6055 19.35 13.3476 20.1914C13.2643 20.4634 13.2311 20.5702 13.1738 20.7136C13.1451 20.7852 13.116 20.8509 13.0751 20.9365C12.7226 20.9784 12.3638 21 12 21C11.6362 21 11.2774 20.9784 10.9249 20.9365C10.884 20.8509 10.8549 20.7852 10.8262 20.7136C10.7689 20.5702 10.7357 20.4634 10.6524 20.1914C10.3945 19.3501 9.94153 17.7794 9.58695 16.0802C10.4211 16.1997 11.2458 16.275 12 16.275Z" fill="white"/>
<path d="M6.033 15.365C4.91874 15.0878 3.96973 14.8093 3.39083 14.6316C4.26221 17.4859 6.51413 19.7378 9.36843 20.6092L9.36164 20.587C9.08319 19.6785 8.54483 17.8214 8.16163 15.8386C7.41643 15.6945 6.69191 15.529 6.033 15.365Z" fill="white"/>
<path d="M20.587 14.6384C19.6784 14.9168 17.8213 15.4552 15.8384 15.8384C15.4552 17.8213 14.9168 19.6784 14.6384 20.587L14.6316 20.6092C17.4859 19.7378 19.7378 17.4859 20.6092 14.6316L20.587 14.6384Z" fill="white"/>
<path d="M3.09455 13.134C3.1257 13.138 3.15109 13.1423 3.15952 13.1442C3.1669 13.146 3.17846 13.1491 3.18266 13.1502L3.19192 13.1529L3.19691 13.1544L3.20216 13.156L3.20655 13.1574C3.20408 13.1566 3.15408 13.1441 3.09455 13.134Z" fill="white"/>
</svg>
