<svg width="49" height="48" viewBox="0 0 49 48" fill="none" xmlns="http://www.w3.org/2000/svg">
<rect x="0.666016" width="48" height="48" rx="24" fill="#415FFF"/>
<g clip-path="url(#clip0_1_11353)">
<g clip-path="url(#clip1_1_11353)">
<path d="M33.3291 15.2227C31.6135 14.4355 29.7738 13.8555 27.8503 13.5234C27.8152 13.517 27.7802 13.533 27.7622 13.565C27.5256 13.9858 27.2635 14.5348 27.08 14.9663C25.0111 14.6566 22.9529 14.6566 20.9264 14.9663C20.7429 14.5252 20.4713 13.9858 20.2336 13.565C20.2156 13.534 20.1806 13.518 20.1455 13.5234C18.2231 13.8545 16.3834 14.4344 14.6668 15.2227C14.6519 15.2291 14.6392 15.2398 14.6307 15.2536C11.1412 20.4669 10.1853 25.552 10.6542 30.5741C10.6563 30.5987 10.6701 30.6222 10.6892 30.6371C12.9915 32.3279 15.2217 33.3543 17.4104 34.0346C17.4454 34.0453 17.4825 34.0325 17.5048 34.0037C18.0226 33.2966 18.4841 32.5511 18.8798 31.7671C18.9032 31.7212 18.8809 31.6667 18.8331 31.6486C18.1011 31.3709 17.404 31.0323 16.7335 30.6478C16.6805 30.6168 16.6762 30.541 16.725 30.5047C16.8661 30.3989 17.0073 30.2889 17.142 30.1778C17.1664 30.1575 17.2003 30.1533 17.229 30.1661C21.6341 32.1773 26.4031 32.1773 30.7562 30.1661C30.7849 30.1522 30.8188 30.1565 30.8443 30.1768C30.979 30.2878 31.1201 30.3989 31.2623 30.5047C31.3111 30.541 31.3079 30.6168 31.2549 30.6478C30.5844 31.0398 29.8873 31.3709 29.1542 31.6475C29.1064 31.6657 29.0852 31.7212 29.1086 31.7671C29.5128 32.55 29.9743 33.2955 30.4825 34.0026C30.5037 34.0325 30.5419 34.0453 30.5769 34.0346C32.7763 33.3543 35.0064 32.3279 37.3087 30.6371C37.3289 30.6222 37.3416 30.5997 37.3437 30.5752C37.905 24.7691 36.4037 19.7257 33.364 15.2547C33.3566 15.2398 33.3439 15.2291 33.3291 15.2227ZM19.5376 27.5162C18.2114 27.5162 17.1186 26.2986 17.1186 24.8033C17.1186 23.308 18.1902 22.0904 19.5376 22.0904C20.8956 22.0904 21.9778 23.3187 21.9566 24.8033C21.9566 26.2986 20.885 27.5162 19.5376 27.5162ZM28.4815 27.5162C27.1553 27.5162 26.0625 26.2986 26.0625 24.8033C26.0625 23.308 27.1341 22.0904 28.4815 22.0904C29.8396 22.0904 30.9217 23.3187 30.9005 24.8033C30.9005 26.2986 29.8396 27.5162 28.4815 27.5162Z" fill="white"/>
</g>
</g>
<defs>
<clipPath id="clip0_1_11353">
<rect width="26.9167" height="26.9167" fill="white" transform="translate(10.541 10.3752)"/>
</clipPath>
<clipPath id="clip1_1_11353">
<rect width="26.9167" height="20.8509" fill="white" transform="translate(10.541 13.3659)"/>
</clipPath>
</defs>
</svg>
